# Blender v2.92.0 OBJ File: 'quarto.blend'
# www.blender.org
mtllib helice.mtl
o helice_Cube.007
v -0.111653 -0.344318 0.161177
v -0.111653 -0.161177 0.344318
v -0.111653 0.161177 0.344318
v -0.111653 0.344318 0.161177
v -0.111653 -0.344318 -0.161177
v -0.111653 -0.161177 -0.344318
v -0.111653 0.344318 -0.161177
v -0.111653 0.161177 -0.344318
v 0.052963 -0.344318 0.161177
v 0.052963 -0.161177 0.344318
v 0.052963 0.344318 0.161177
v 0.052963 0.161177 0.344318
v 0.052963 -0.344318 -0.161177
v 0.052963 -0.161177 -0.344318
v 0.052963 0.344318 -0.161177
v 0.052963 0.161177 -0.344318
v -0.180961 -0.177779 0.083219
v -0.180961 -0.083219 0.177779
v -0.180961 0.083219 0.177779
v -0.180961 0.177779 0.083219
v -0.180961 -0.083219 -0.177779
v -0.180961 -0.177779 -0.083219
v -0.180961 0.177779 -0.083219
v -0.180961 0.083219 -0.177779
v -0.102821 0.320345 -0.191469
v -0.128253 1.328157 0.001093
v 0.040706 0.274542 0.245496
v 0.055161 0.288659 1.512416
v 0.030278 0.285695 0.055756
v 0.019877 0.288328 -0.039647
v -0.003643 0.291287 -0.123347
v -0.044649 0.283230 -0.177739
v -0.047464 1.352781 0.310870
v -0.004021 1.254006 0.697584
v 0.019877 1.058786 1.036644
v 0.040172 0.707901 1.352238
v -0.128253 0.653331 -0.265041
v -0.128253 1.005315 -0.195501
v 0.055161 0.409495 0.960648
v 0.050599 0.386372 0.526315
v 0.040172 0.426430 0.487917
v 0.040172 0.567165 0.920077
v 0.019877 0.545147 0.319117
v 0.019877 0.801967 0.677881
v -0.004021 0.612150 0.148248
v -0.004021 0.933295 0.421972
v -0.047464 0.639421 -0.030114
v -0.047464 0.997713 0.133348
v -0.128253 1.166736 -0.097204
v 0.040172 0.637533 1.136158
v 0.019877 0.930376 0.857262
v -0.004021 1.093650 0.559778
v -0.047464 1.175247 0.222109
v 0.055161 0.252588 1.416681
v -0.102821 -0.330416 -0.173511
v -0.128253 -0.691607 -1.133879
v 0.040706 0.066326 -0.362274
v 0.055161 1.140022 -1.034929
v 0.030278 -0.101393 -0.272855
v 0.019877 -0.184173 -0.225355
v -0.003643 -0.257137 -0.184237
v -0.044649 -0.299348 -0.149001
v -0.047464 -0.440116 -1.316417
v -0.004021 -0.058630 -1.433777
v 0.019877 0.332481 -1.443993
v 0.040172 0.784738 -1.309144
v -0.128253 -0.566824 -0.419284
v -0.128253 -0.691021 -0.755890
v 0.055161 0.606193 -0.850329
v 0.050599 0.247636 -0.604125
v 0.040172 0.193984 -0.618284
v 0.040172 0.489361 -0.963714
v 0.019877 -0.011955 -0.631568
v 0.019877 0.160263 -1.037781
v -0.004021 -0.192693 -0.599645
v -0.004021 -0.126581 -1.016404
v -0.047464 -0.359109 -0.529912
v -0.047464 -0.406452 -0.920875
v -0.128253 -0.691314 -0.944884
v 0.040172 0.637049 -1.136429
v 0.019877 0.246372 -1.240887
v -0.004021 -0.092605 -1.225090
v -0.047464 -0.423284 -1.118646
v 0.055161 1.077139 -0.954230
v -0.102821 -0.019402 0.372699
v -0.128254 -0.740655 1.102466
v 0.040706 -0.356805 0.091281
v 0.055161 -1.416884 -0.602635
v 0.030278 -0.205431 0.206224
v 0.019877 -0.127663 0.261547
v -0.003643 -0.059796 0.310624
v -0.044649 -0.010134 0.334227
v -0.047464 -1.011649 0.950380
v -0.004022 -1.277812 0.652955
v 0.019876 -1.450680 0.301972
v 0.040172 -1.517357 -0.165226
v -0.128253 -0.143763 0.690232
v -0.128254 -0.397563 0.943834
v 0.055161 -1.025925 -0.194957
v 0.050599 -0.652319 0.027751
v 0.040172 -0.642740 0.082407
v 0.040172 -1.080048 -0.041410
v 0.019877 -0.568668 0.275022
v 0.019877 -1.009674 0.288497
v -0.004021 -0.464075 0.425839
v -0.004022 -0.870280 0.540103
v -0.047464 -0.331129 0.547831
v -0.047464 -0.666448 0.754360
v -0.128254 -0.569109 1.023150
v 0.040172 -1.298702 -0.103318
v 0.019877 -1.230177 0.295234
v -0.004022 -1.074046 0.596529
v -0.047464 -0.839049 0.852370
v 0.055161 -1.317282 -0.579270
vt 0.441487 0.816487
vt 0.558513 0.816487
vt 0.558513 0.933513
vt 0.441487 0.933513
vt 0.691487 0.566487
vt 0.808513 0.566487
vt 0.808513 0.683513
vt 0.691487 0.683513
vt 0.441487 0.316487
vt 0.558513 0.316487
vt 0.558513 0.433513
vt 0.441487 0.433513
vt 0.191487 0.500000
vt 0.191487 0.566487
vt 0.191487 0.566487
vt 0.191487 0.500000
vt 0.191487 0.683513
vt 0.191487 0.683513
vt 0.808513 0.566487
vt 0.808513 0.683513
vt 0.308513 0.566487
vt 0.308513 0.500000
vt 0.625000 0.316487
vt 0.625000 0.433513
vt 0.308513 0.683513
vt 0.308513 0.750000
vt 0.191487 0.750000
vt 0.625000 0.816487
vt 0.625000 0.933513
vt 0.441487 0.933513
vt 0.558513 0.933513
vt 0.558513 0.316487
vt 0.441487 0.316487
vt 0.625000 0.316487
vt 0.191487 0.750000
vt 0.625000 0.933513
vt 0.666667 0.822133
vt 0.666667 1.000000
vt 1.000000 1.000000
vt 1.000000 0.822133
vt 0.666667 0.000000
vt 0.666667 0.334955
vt 1.000000 0.334955
vt 1.000000 0.000000
vt 0.666667 0.469571
vt 1.000000 0.469571
vt 0.666667 0.629850
vt 1.000000 0.629850
vt 0.166667 0.629850
vt 0.166667 0.822133
vt 0.333333 0.822133
vt 0.333333 0.629850
vt 0.166667 0.469571
vt 0.333333 0.469571
vt 0.166667 0.334955
vt 0.333333 0.334955
vt 0.166667 0.000000
vt 0.333333 0.000000
vt 0.166667 1.000000
vt 0.333333 1.000000
vt 0.000000 0.822133
vt 0.000000 1.000000
vt 0.000000 0.000000
vt 0.000000 0.334955
vt 0.000000 0.469571
vt 0.000000 0.629850
vt 0.666667 0.822133
vt 0.666667 1.000000
vt 1.000000 1.000000
vt 1.000000 0.822133
vt 0.666667 0.000000
vt 0.666667 0.334955
vt 1.000000 0.334955
vt 1.000000 0.000000
vt 0.666667 0.469571
vt 1.000000 0.469571
vt 0.666667 0.629850
vt 1.000000 0.629850
vt 0.166667 0.629850
vt 0.166667 0.822133
vt 0.333333 0.822133
vt 0.333333 0.629850
vt 0.166667 0.469571
vt 0.333333 0.469571
vt 0.166667 0.334955
vt 0.333333 0.334955
vt 0.166667 0.000000
vt 0.333333 0.000000
vt 0.166667 1.000000
vt 0.333333 1.000000
vt 0.000000 0.822133
vt 0.000000 1.000000
vt 0.000000 0.000000
vt 0.000000 0.334955
vt 0.000000 0.469571
vt 0.000000 0.629850
vt 0.666667 0.822133
vt 0.666667 1.000000
vt 1.000000 1.000000
vt 1.000000 0.822133
vt 0.666667 0.000000
vt 0.666667 0.334955
vt 1.000000 0.334955
vt 1.000000 0.000000
vt 0.666667 0.469571
vt 1.000000 0.469571
vt 0.666667 0.629850
vt 1.000000 0.629850
vt 0.166667 0.629850
vt 0.166667 0.822133
vt 0.333333 0.822133
vt 0.333333 0.629850
vt 0.166667 0.469571
vt 0.333333 0.469571
vt 0.166667 0.334955
vt 0.333333 0.334955
vt 0.166667 0.000000
vt 0.333333 0.000000
vt 0.166667 1.000000
vt 0.333333 1.000000
vt 0.000000 0.822133
vt 0.000000 1.000000
vt 0.000000 0.000000
vt 0.000000 0.334955
vt 0.000000 0.469571
vt 0.000000 0.629850
vn 0.0000 0.0000 1.0000
vn 0.0000 1.0000 0.0000
vn 0.0000 0.0000 -1.0000
vn -0.9282 -0.2631 -0.2631
vn -0.9232 -0.3842 0.0000
vn -0.9232 0.3842 0.0000
vn 0.0000 -0.7071 -0.7071
vn 0.0000 0.7071 -0.7071
vn 1.0000 0.0000 0.0000
vn 0.0000 -0.7071 0.7071
vn 0.0000 0.7071 0.7071
vn 0.0000 -1.0000 0.0000
vn -1.0000 0.0000 0.0000
vn -0.9282 -0.2631 0.2631
vn -0.9232 0.0000 0.3842
vn -0.9282 0.2631 -0.2631
vn -0.9232 0.0000 -0.3842
vn -0.9282 0.2631 0.2631
vn -0.8771 -0.0867 0.4724
vn -0.9918 -0.1091 0.0662
vn -0.9921 -0.1069 0.0662
vn -0.9782 -0.1534 0.1400
vn -0.9259 -0.2020 0.3193
vn -0.9897 -0.0796 0.1187
vn -0.9812 -0.1043 0.1621
vn -0.9967 -0.0597 0.0543
vn -0.9940 -0.0808 0.0738
vn -0.9983 -0.0513 0.0258
vn -0.9967 -0.0722 0.0363
vn -0.9982 -0.0597 -0.0077
vn -0.9928 -0.1167 0.0273
vn -0.9617 -0.1324 0.2399
vn -0.9584 -0.0890 0.2713
vn -0.9573 -0.1397 0.2532
vn -0.9994 -0.0314 0.0107
vn -0.9988 -0.0430 0.0216
vn -0.9976 -0.0508 0.0463
vn -0.9924 -0.0684 0.1020
vn -0.8771 0.4483 -0.1723
vn -0.9918 0.1134 0.0586
vn -0.9921 0.1122 0.0567
vn -0.9782 0.1995 0.0579
vn -0.9259 0.3778 0.0059
vn -0.9897 0.1428 0.0060
vn -0.9812 0.1927 0.0045
vn -0.9967 0.0775 0.0226
vn -0.9940 0.1051 0.0304
vn -0.9983 0.0488 0.0303
vn -0.9967 0.0686 0.0427
vn -0.9982 0.0246 0.0549
vn -0.9928 0.0842 0.0854
vn -0.9617 0.2738 -0.0121
vn -0.9584 0.2779 -0.0655
vn -0.9573 0.2889 -0.0128
vn -0.9994 0.0255 0.0212
vn -0.9988 0.0409 0.0254
vn -0.9976 0.0660 0.0192
vn -0.9924 0.1227 0.0052
vn -0.8771 -0.3440 -0.3351
vn -0.9918 0.0058 -0.1275
vn -0.9921 0.0046 -0.1256
vn -0.9782 -0.0308 -0.2054
vn -0.9259 -0.1526 -0.3456
vn -0.9897 -0.0543 -0.1323
vn -0.9812 -0.0765 -0.1769
vn -0.9967 -0.0119 -0.0798
vn -0.9940 -0.0163 -0.1082
vn -0.9983 0.0072 -0.0570
vn -0.9967 0.0101 -0.0802
vn -0.9982 0.0396 -0.0453
vn -0.9928 0.0423 -0.1121
vn -0.9617 -0.1255 -0.2436
vn -0.9584 -0.1757 -0.2250
vn -0.9573 -0.1325 -0.2571
vn -0.9994 0.0086 -0.0320
vn -0.9988 0.0060 -0.0478
vn -0.9976 -0.0101 -0.0680
vn -0.9924 -0.0466 -0.1136
usemtl None
s off
f 10/1/1 12/2/1 3/3/1 2/4/1
f 15/5/2 7/6/2 4/7/2 11/8/2
f 6/9/3 8/10/3 16/11/3 14/12/3
f 6/13/4 5/14/4 22/15/4 21/16/4
f 5/14/5 1/17/5 17/18/5 22/15/5
f 4/7/6 7/6/6 23/19/6 20/20/6
f 13/21/7 5/14/7 6/13/7 14/22/7
f 7/23/8 15/24/8 16/11/8 8/10/8
f 10/1/9 9/25/9 13/21/9 14/12/9
f 14/12/9 16/11/9 12/2/9 10/1/9
f 11/8/9 12/2/9 16/11/9 15/5/9
f 1/17/10 9/25/10 10/26/10 2/27/10
f 11/28/11 4/29/11 3/3/11 12/2/11
f 5/14/12 13/21/12 9/25/12 1/17/12
f 17/18/13 18/30/13 21/16/13 22/15/13
f 18/30/13 19/31/13 24/32/13 21/33/13
f 19/31/13 20/20/13 23/34/13 24/32/13
f 1/17/14 2/27/14 18/35/14 17/18/14
f 2/4/15 3/3/15 19/31/15 18/30/15
f 7/23/16 8/10/16 24/32/16 23/34/16
f 8/10/17 6/9/17 21/33/17 24/32/17
f 3/3/18 4/29/18 20/36/18 19/31/18
f 47/37/19 37/38/19 25/39/19 32/40/19
f 40/41/20 41/42/20 29/43/20 27/44/20
f 41/42/21 43/45/21 30/46/21 29/43/21
f 43/45/22 45/47/22 31/48/22 30/46/22
f 45/47/23 47/37/23 32/40/23 31/48/23
f 52/49/24 53/50/24 48/51/24 46/52/24
f 46/52/25 48/51/25 47/37/25 45/47/25
f 51/53/26 52/49/26 46/52/26 44/54/26
f 44/54/27 46/52/27 45/47/27 43/45/27
f 50/55/28 51/53/28 44/54/28 42/56/28
f 42/56/29 44/54/29 43/45/29 41/42/29
f 54/57/30 50/55/30 42/56/30 39/58/30
f 39/58/31 42/56/31 41/42/31 40/41/31
f 53/50/32 49/59/32 38/60/32 48/51/32
f 48/51/33 38/60/33 37/38/33 47/37/33
f 33/61/34 26/62/34 49/59/34 53/50/34
f 28/63/35 36/64/35 50/55/35 54/57/35
f 36/64/36 35/65/36 51/53/36 50/55/36
f 35/65/37 34/66/37 52/49/37 51/53/37
f 34/66/38 33/61/38 53/50/38 52/49/38
f 77/67/39 67/68/39 55/69/39 62/70/39
f 70/71/40 71/72/40 59/73/40 57/74/40
f 71/72/41 73/75/41 60/76/41 59/73/41
f 73/75/42 75/77/42 61/78/42 60/76/42
f 75/77/43 77/67/43 62/70/43 61/78/43
f 82/79/44 83/80/44 78/81/44 76/82/44
f 76/82/45 78/81/45 77/67/45 75/77/45
f 81/83/46 82/79/46 76/82/46 74/84/46
f 74/84/47 76/82/47 75/77/47 73/75/47
f 80/85/48 81/83/48 74/84/48 72/86/48
f 72/86/49 74/84/49 73/75/49 71/72/49
f 84/87/50 80/85/50 72/86/50 69/88/50
f 69/88/51 72/86/51 71/72/51 70/71/51
f 83/80/52 79/89/52 68/90/52 78/81/52
f 78/81/53 68/90/53 67/68/53 77/67/53
f 63/91/54 56/92/54 79/89/54 83/80/54
f 58/93/55 66/94/55 80/85/55 84/87/55
f 66/94/56 65/95/56 81/83/56 80/85/56
f 65/95/57 64/96/57 82/79/57 81/83/57
f 64/96/58 63/91/58 83/80/58 82/79/58
f 107/97/59 97/98/59 85/99/59 92/100/59
f 100/101/60 101/102/60 89/103/60 87/104/60
f 101/102/61 103/105/61 90/106/61 89/103/61
f 103/105/62 105/107/62 91/108/62 90/106/62
f 105/107/63 107/97/63 92/100/63 91/108/63
f 112/109/64 113/110/64 108/111/64 106/112/64
f 106/112/65 108/111/65 107/97/65 105/107/65
f 111/113/66 112/109/66 106/112/66 104/114/66
f 104/114/67 106/112/67 105/107/67 103/105/67
f 110/115/68 111/113/68 104/114/68 102/116/68
f 102/116/69 104/114/69 103/105/69 101/102/69
f 114/117/70 110/115/70 102/116/70 99/118/70
f 99/118/71 102/116/71 101/102/71 100/101/71
f 113/110/72 109/119/72 98/120/72 108/111/72
f 108/111/73 98/120/73 97/98/73 107/97/73
f 93/121/74 86/122/74 109/119/74 113/110/74
f 88/123/75 96/124/75 110/115/75 114/117/75
f 96/124/76 95/125/76 111/113/76 110/115/76
f 95/125/77 94/126/77 112/109/77 111/113/77
f 94/126/78 93/121/78 113/110/78 112/109/78
