# Blender v2.92.0 OBJ File: 'quarto.blend'
# www.blender.org
mtllib quadro.mtl
o moldura_Cube.008
v 45.444553 11.519554 1.325535
v 44.990826 11.519554 1.325535
v 45.444550 4.116784 0.325535
v 44.990826 4.116784 0.325535
v 45.444546 2.716536 -10.230589
v 45.444546 11.519554 -10.230589
v 44.990818 2.716536 -10.230589
v 44.990818 11.519554 -10.230589
v 45.444546 4.116784 -9.230589
v 45.444546 10.119306 -9.230589
v 44.990822 4.116784 -9.230589
v 44.990822 10.119306 -9.230589
v 45.444550 10.119306 0.325535
v 44.990826 10.119306 0.325535
v 45.444553 2.716536 1.325535
v 44.990826 2.716536 1.325535
vt 0.375000 0.000000
vt 0.625000 0.000000
vt 0.625000 0.250000
vt 0.375000 0.250000
vt 0.625000 0.500000
vt 0.375000 0.500000
vt 0.625000 0.750000
vt 0.375000 0.750000
vt 0.625000 1.000000
vt 0.375000 1.000000
vt 0.375000 0.000000
vt 0.375000 0.250000
vt 0.625000 0.250000
vt 0.625000 0.000000
vt 0.375000 0.500000
vt 0.625000 0.500000
vt 0.375000 0.750000
vt 0.625000 0.750000
vt 0.375000 1.000000
vt 0.625000 1.000000
vt 0.875000 0.750000
vt 0.875000 0.500000
vt 0.125000 0.500000
vt 0.125000 0.750000
vn 0.0000 0.0000 1.0000
vn -1.0000 0.0000 0.0000
vn 0.0000 0.0000 -1.0000
vn 1.0000 0.0000 -0.0000
vn 0.0000 -0.5812 0.8138
vn 0.0000 -1.0000 -0.0000
vn 0.0000 1.0000 0.0000
vn 0.0000 0.5812 0.8138
usemtl None
s off
f 15/1/1 1/2/1 2/3/1 16/4/1
f 16/4/2 2/3/2 14/5/2 4/6/2
f 4/6/3 14/5/3 13/7/3 3/8/3
f 3/8/4 13/7/4 1/9/4 15/10/4
f 5/11/3 7/12/3 8/13/3 6/14/3
f 7/12/2 11/15/2 12/16/2 8/13/2
f 11/15/1 9/17/1 10/18/1 12/16/1
f 9/17/4 5/19/4 6/20/4 10/18/4
f 9/17/4 3/8/4 15/10/4 5/19/4
f 12/16/2 14/5/2 2/3/2 8/13/2
f 14/5/5 13/7/5 1/21/5 2/22/5
f 10/18/6 13/7/6 14/5/6 12/16/6
f 8/13/7 2/3/7 1/2/7 6/14/7
f 6/20/4 1/9/4 13/7/4 10/18/4
f 16/23/8 15/24/8 3/8/8 4/6/8
f 7/12/2 16/4/2 4/6/2 11/15/2
f 5/11/6 15/1/6 16/4/6 7/12/6
f 11/15/7 4/6/7 3/8/7 9/17/7
