# Blender v2.92.0 OBJ File: 'quarto.blend'
# www.blender.org
mtllib cadeira.mtl
o cadeira_Cube.006
v 34.397549 -15.484272 -2.254390
v 34.397549 -9.791439 -2.254390
v 34.397549 -15.484272 -3.502805
v 34.397549 -9.791439 -3.502805
v 35.645962 -15.484272 -2.254390
v 35.645962 -15.484272 -3.502805
v 35.645962 -9.791439 -3.502805
v 40.952820 -15.484272 -2.254390
v 40.952820 -9.791439 -2.254390
v 40.952820 -15.484272 -3.502805
v 40.952820 -9.791439 -3.502805
v 42.201237 -15.484272 -2.254390
v 42.201237 -9.791439 -2.254390
v 42.201237 -15.484272 -3.502805
v 35.645962 -9.791439 -2.254390
v 34.397549 -2.369986 -2.254390
v 34.397549 -2.369986 -3.502805
v 35.645962 -2.369986 -2.254390
v 35.645962 -2.369986 -3.502805
v 35.645962 -9.177434 -2.254390
v 34.397549 -9.177434 -3.502805
v 35.645962 -9.177434 -3.502805
v 34.397549 -9.177434 -2.254390
v 42.201218 -9.791439 -3.502805
v 42.201218 -9.177434 -2.254390
v 42.201218 -9.177434 -3.502805
v 40.952820 -9.177434 -3.502805
v 40.952820 -9.177434 -2.254390
v 34.397549 -12.120325 -2.254390
v 34.749489 -12.163136 -3.502805
v 35.645962 -12.120325 -3.502805
v 35.645962 -12.120325 -2.254390
v 34.749489 -13.470400 -3.502805
v 35.645962 -13.513209 -2.254390
v 34.397549 -13.513209 -2.254390
v 40.952820 -12.120325 -3.502805
v 40.952820 -13.513209 -3.502805
v 40.952820 -13.513209 -2.254390
v 42.201237 -12.120326 -2.254390
v 41.849289 -12.163136 -3.502805
v 42.201237 -13.513210 -2.254390
v 41.849289 -13.470401 -3.502805
v 35.645962 -13.513209 -3.502805
v 40.952820 -12.120325 -3.502805
v 40.952820 -13.513209 -3.502805
v 40.952820 -13.513209 -2.254390
v 35.645962 -13.466868 -2.628928
v 35.645962 -12.166667 -2.628928
v 35.645962 -13.466868 -3.147632
v 35.645962 -12.166667 -3.147632
v 40.952820 -13.513210 -2.254390
v 40.952820 -12.120326 -2.254390
v 41.304760 -12.163136 -3.502805
v 41.304760 -13.470401 -3.502805
v 40.952766 -13.466868 -2.628928
v 40.952766 -12.166667 -2.628928
v 40.952766 -13.466868 -3.147632
v 40.952766 -12.166667 -3.147632
v 34.397549 -12.120325 -3.502805
v 34.397549 -13.513209 -3.502805
v 35.294022 -12.163136 -3.502805
v 40.952820 -12.120326 -3.502805
v 35.294022 -13.470400 -3.502805
v 42.201225 -12.120326 -3.502805
v 40.952820 -13.513210 -3.502805
v 42.201229 -13.513210 -3.502805
v 35.645962 -7.664345 -2.254390
v 34.669201 -7.556486 -3.502805
v 34.397549 -7.664345 -2.254390
v 35.374310 -7.556486 -3.502805
v 35.645962 -3.117026 -2.254390
v 34.669201 -3.224886 -3.502805
v 34.397549 -3.117026 -2.254390
v 35.374310 -3.224886 -3.502805
v 35.645962 -3.117026 -3.502805
v 35.645962 -7.664345 -3.502805
v 34.397549 -7.664345 -3.502805
v 34.397549 -3.117026 -3.502805
v 34.397549 -15.484272 -9.660178
v 34.397549 -9.791439 -9.660178
v 34.397549 -15.484272 -8.411763
v 35.645962 -15.484272 -9.660178
v 35.645962 -15.484272 -8.411763
v 40.952820 -15.484272 -9.660178
v 40.952820 -9.791439 -9.660178
v 40.952820 -15.484272 -8.411763
v 40.952820 -9.791439 -8.411763
v 42.201237 -15.484272 -9.660178
v 42.201237 -9.791439 -9.660178
v 42.201237 -15.484272 -8.411763
v 34.397549 -9.791439 -8.411763
v 34.397549 -2.369986 -9.660178
v 34.397549 -2.369986 -8.411763
v 35.645962 -2.369986 -9.660178
v 35.645962 -2.369986 -8.411763
v 34.397549 -9.177434 -8.411763
v 35.645962 -9.791439 -9.660178
v 35.645962 -9.791439 -8.411763
v 35.645962 -9.177434 -9.660178
v 34.397549 -9.177434 -9.660178
v 35.645962 -9.177434 -8.411763
v 42.201218 -9.791439 -8.411763
v 42.201218 -9.177434 -9.660178
v 42.201218 -9.177434 -8.411763
v 40.952820 -9.177434 -8.411763
v 40.952820 -9.177434 -9.660178
v 34.397549 -12.120325 -9.660178
v 35.645962 -12.120325 -8.411763
v 35.645962 -12.120325 -9.660178
v 35.645962 -13.513209 -8.411763
v 35.645962 -13.513209 -9.660178
v 34.397549 -13.513209 -9.660178
v 40.952820 -12.120325 -8.411763
v 40.952820 -13.513209 -8.411763
v 40.952820 -13.513209 -9.660178
v 42.201237 -12.120326 -9.660178
v 42.201237 -13.513210 -9.660178
v 40.952820 -12.120325 -8.411763
v 40.952820 -13.513209 -8.411763
v 40.952820 -13.513209 -9.660178
v 35.645962 -13.466868 -9.285640
v 35.645962 -12.166667 -9.285640
v 35.645962 -13.466868 -8.766935
v 35.645962 -12.166667 -8.766935
v 40.952820 -13.513210 -9.660178
v 40.952820 -12.120326 -9.660178
v 41.304760 -13.470401 -8.411763
v 40.952766 -13.466868 -9.285640
v 40.952766 -12.166667 -9.285640
v 40.952766 -13.466868 -8.766935
v 40.952766 -12.166667 -8.766935
v 34.397549 -12.120325 -8.411763
v 34.397549 -13.513209 -8.411763
v 35.294022 -12.163136 -8.411763
v 40.952820 -12.120326 -8.411763
v 35.294022 -13.470400 -8.411763
v 42.201225 -12.120326 -8.411763
v 40.952820 -13.513210 -8.411763
v 42.201229 -13.513210 -8.411763
v 34.749489 -12.163136 -8.411763
v 34.749489 -13.470400 -8.411763
v 41.304760 -12.163136 -8.411763
v 41.849289 -12.163136 -8.411763
v 41.849289 -13.470401 -8.411763
v 35.645962 -7.664345 -9.660178
v 34.669201 -7.556486 -8.411763
v 34.397549 -7.664345 -9.660178
v 35.374310 -7.556486 -8.411763
v 35.645962 -3.117026 -9.660178
v 34.669201 -3.224886 -8.411763
v 34.397549 -3.117026 -9.660178
v 35.374310 -3.224886 -8.411763
v 35.645962 -3.117026 -8.411763
v 35.645962 -7.664345 -8.411763
v 34.397549 -7.664345 -8.411763
v 34.397549 -3.117026 -8.411763
vt 0.522727 0.000000
vt 0.625000 0.000000
vt 0.625000 0.250000
vt 0.522727 0.250000
vt 0.625000 0.500000
vt 0.522727 0.500000
vt 0.625000 0.750000
vt 0.522727 0.750000
vt 0.625000 1.000000
vt 0.522727 1.000000
vt 0.125000 0.500000
vt 0.375000 0.500000
vt 0.375000 0.750000
vt 0.125000 0.750000
vt 0.522727 0.000000
vt 0.625000 0.000000
vt 0.625000 0.250000
vt 0.522727 0.250000
vt 0.625000 0.500000
vt 0.522727 0.500000
vt 0.625000 0.750000
vt 0.522727 0.750000
vt 0.625000 1.000000
vt 0.522727 1.000000
vt 0.125000 0.500000
vt 0.375000 0.500000
vt 0.375000 0.750000
vt 0.125000 0.750000
vt 0.625000 0.500000
vt 0.625000 0.750000
vt 0.625000 1.000000
vt 0.625000 0.750000
vt 0.625000 0.750000
vt 0.625000 1.000000
vt 0.625000 0.500000
vt 0.875000 0.500000
vt 0.875000 0.750000
vt 0.625000 0.500000
vt 0.625000 0.250000
vt 0.625000 0.250000
vt 0.625000 0.000000
vt 0.625000 0.000000
vt 0.625000 0.000000
vt 0.625000 0.250000
vt 0.625000 0.500000
vt 0.625000 0.750000
vt 0.625000 1.000000
vt 0.625000 0.500000
vt 0.625000 0.500000
vt 0.625000 0.500000
vt 0.625000 0.750000
vt 0.625000 0.500000
vt 0.625000 0.750000
vt 0.625000 0.500000
vt 0.625000 0.500000
vt 0.625000 0.500000
vt 0.625000 0.500000
vt 0.625000 0.250000
vt 0.461559 0.750000
vt 0.461559 1.000000
vt 0.463439 0.258573
vt 0.520847 0.258573
vt 0.520847 0.258573
vt 0.463439 0.258573
vt 0.461559 0.000000
vt 0.461559 0.250000
vt 0.375000 0.000000
vt 0.375000 0.250000
vt 0.461559 0.500000
vt 0.375000 1.000000
vt 0.375000 0.000000
vt 0.461559 0.000000
vt 0.461559 0.250000
vt 0.375000 0.250000
vt 0.000000 0.000000
vt 0.000000 0.000000
vt 0.000000 0.000000
vt 0.000000 0.000000
vt 0.461559 0.750000
vt 0.461559 1.000000
vt 0.461559 0.500000
vt 0.463439 0.491427
vt 0.463439 0.491427
vt 0.375000 1.000000
vt 0.000000 0.000000
vt 0.000000 0.000000
vt 0.000000 0.000000
vt 0.000000 0.000000
vt 0.000000 0.000000
vt 0.000000 0.000000
vt 0.520692 0.009280
vt 0.463594 0.009280
vt 0.520692 0.240720
vt 0.463594 0.240720
vt 0.000000 0.000000
vt 0.000000 0.000000
vt 0.520847 0.491427
vt 0.520847 0.258573
vt 0.463439 0.258573
vt 0.463439 0.491427
vt 0.520847 0.491427
vt 0.463439 0.258573
vt 0.463439 0.491427
vt 0.520847 0.491427
vt 0.520847 0.258573
vt 0.520847 0.491427
vt 0.625000 0.000000
vt 0.625000 0.250000
vt 0.625000 0.500000
vt 0.625000 0.750000
vt 0.625000 1.000000
vt 0.625000 0.478401
vt 0.625000 0.271599
vt 0.625000 0.271599
vt 0.625000 0.478401
vt 0.625000 0.478401
vt 0.625000 0.271599
vt 0.625000 0.271599
vt 0.625000 0.478401
vt 0.522727 0.000000
vt 0.522727 0.250000
vt 0.625000 0.250000
vt 0.625000 0.000000
vt 0.522727 0.500000
vt 0.522727 0.750000
vt 0.625000 0.750000
vt 0.522727 1.000000
vt 0.625000 1.000000
vt 0.125000 0.500000
vt 0.125000 0.750000
vt 0.375000 0.750000
vt 0.375000 0.500000
vt 0.522727 0.000000
vt 0.522727 0.250000
vt 0.625000 0.000000
vt 0.522727 0.500000
vt 0.522727 0.750000
vt 0.625000 0.750000
vt 0.522727 1.000000
vt 0.625000 1.000000
vt 0.125000 0.500000
vt 0.125000 0.750000
vt 0.375000 0.750000
vt 0.375000 0.500000
vt 0.625000 0.750000
vt 0.625000 1.000000
vt 0.625000 1.000000
vt 0.625000 0.750000
vt 0.625000 0.750000
vt 0.625000 0.500000
vt 0.875000 0.750000
vt 0.875000 0.500000
vt 0.625000 0.500000
vt 0.625000 0.250000
vt 0.625000 0.250000
vt 0.625000 0.000000
vt 0.625000 0.000000
vt 0.625000 0.250000
vt 0.625000 0.000000
vt 0.625000 1.000000
vt 0.625000 0.750000
vt 0.625000 0.750000
vt 0.625000 0.750000
vt 0.461559 0.750000
vt 0.461559 1.000000
vt 0.461559 0.000000
vt 0.461559 0.250000
vt 0.375000 0.000000
vt 0.375000 0.250000
vt 0.461559 0.500000
vt 0.375000 1.000000
vt 0.375000 0.000000
vt 0.375000 0.250000
vt 0.461559 0.250000
vt 0.461559 0.000000
vt 0.000000 0.000000
vt 0.000000 0.000000
vt 0.000000 0.000000
vt 0.000000 0.000000
vt 0.461559 0.750000
vt 0.461559 1.000000
vt 0.461559 0.500000
vt 0.375000 1.000000
vt 0.000000 0.000000
vt 0.000000 0.000000
vt 0.000000 0.000000
vt 0.000000 0.000000
vt 0.000000 0.000000
vt 0.000000 0.000000
vt 0.520692 0.009280
vt 0.463594 0.009280
vt 0.520692 0.240720
vt 0.463594 0.240720
vt 0.000000 0.000000
vt 0.000000 0.000000
vt 0.625000 0.250000
vt 0.625000 0.000000
vt 0.625000 0.750000
vt 0.625000 0.500000
vt 0.625000 1.000000
vn -1.0000 0.0000 0.0000
vn 0.0000 0.0000 -1.0000
vn 1.0000 0.0000 0.0000
vn 0.0000 0.0000 1.0000
vn 0.0000 -1.0000 0.0000
vn 0.0000 1.0000 0.0000
vn -1.0000 0.0000 0.0001
vn -1.0000 0.0011 0.0000
vn -1.0000 0.0000 -0.0002
vn -1.0000 -0.0011 0.0000
vn -1.0000 0.0000 -0.0001
vn -1.0000 0.0000 0.0002
vn -1.0000 -0.0012 0.0000
usemtl None
s off
f 29/1/1 2/2/1 4/3/1 59/4/1
f 59/4/2 4/3/2 7/5/2 31/6/2
f 31/6/3 7/5/3 15/7/3 32/8/3
f 32/8/4 15/7/4 2/9/4 29/10/4
f 3/11/5 6/12/5 5/13/5 1/14/5
f 52/15/1 9/16/1 11/17/1 62/18/1
f 62/18/2 11/17/2 24/19/2 64/20/2
f 64/20/3 24/19/3 13/21/3 39/22/3
f 39/22/4 13/21/4 9/23/4 52/24/4
f 10/25/5 14/26/5 12/27/5 8/28/5
f 15/7/5 7/5/5 11/29/5 9/30/5
f 73/31/4 71/32/4 18/33/4 16/34/4
f 19/35/6 17/36/6 16/37/6 18/33/6
f 75/38/2 78/39/2 17/40/2 19/35/2
f 71/32/3 75/38/3 19/35/3 18/33/3
f 78/39/1 73/41/1 16/42/1 17/40/1
f 4/3/1 2/2/1 23/43/1 21/44/1
f 7/5/2 4/3/2 21/44/2 22/45/2
f 2/9/4 15/7/4 20/46/4 23/47/4
f 7/5/1 22/45/1 101/48/1 98/49/1
f 13/21/3 24/19/3 26/50/3 25/51/3
f 27/52/6 28/53/6 25/51/6 26/50/6
f 28/53/4 9/30/4 13/21/4 25/51/4
f 20/46/4 15/7/4 9/30/4 28/53/4
f 22/45/6 20/46/6 28/53/6 27/52/6
f 26/50/3 24/19/3 102/54/3 104/55/3
f 22/45/6 27/52/6 105/56/6 101/48/6
f 27/52/6 26/50/6 104/55/6 105/56/6
f 11/29/5 7/5/5 98/49/5 87/57/5
f 24/19/5 11/17/5 87/58/5 102/54/5
f 34/59/4 32/8/4 29/10/4 35/60/4
f 54/61/1 53/62/1 142/63/1 127/64/1
f 35/65/1 29/1/1 59/4/1 60/66/1
f 1/67/1 35/65/1 60/66/1 3/68/1
f 3/68/2 60/66/2 43/69/2 6/12/2
f 6/12/3 43/69/3 34/59/3 5/13/3
f 5/13/4 34/59/4 35/60/4 1/70/4
f 8/71/1 51/72/1 65/73/1 10/74/1
f 49/75/6 47/76/6 55/77/6 57/78/6
f 41/79/4 39/22/4 52/24/4 51/80/4
f 66/81/3 64/20/3 39/22/3 41/79/3
f 42/82/5 54/61/5 127/64/5 144/83/5
f 10/74/2 65/73/2 66/81/2 14/26/2
f 14/26/3 66/81/3 41/79/3 12/27/3
f 12/27/4 41/79/4 51/80/4 8/84/4
f 48/85/1 47/76/1 34/86/1 32/87/1
f 47/76/1 49/75/1 43/88/1 34/86/1
f 49/75/1 50/89/1 31/90/1 43/88/1
f 56/91/7 55/92/7 51/72/7 52/15/7
f 58/93/8 56/91/8 52/15/8 62/18/8
f 57/94/9 58/93/9 62/18/9 65/73/9
f 55/92/10 57/94/10 65/73/10 51/72/10
f 50/89/1 48/85/1 32/87/1 31/90/1
f 50/89/4 49/75/4 57/78/4 58/95/4
f 47/76/2 48/85/2 56/96/2 55/77/2
f 48/85/5 50/89/5 58/95/5 56/96/5
f 61/97/2 30/98/2 59/4/2 31/6/2
f 30/98/2 33/99/2 60/66/2 59/4/2
f 63/100/2 61/97/2 31/6/2 43/69/2
f 33/99/2 63/100/2 43/69/2 60/66/2
f 40/101/2 53/62/2 62/18/2 64/20/2
f 53/62/2 54/61/2 65/73/2 62/18/2
f 42/82/2 40/101/2 64/20/2 66/81/2
f 54/61/2 42/82/2 66/81/2 65/73/2
f 63/100/5 33/99/5 141/102/5 136/103/5
f 61/97/3 63/100/3 136/103/3 134/104/3
f 33/99/1 30/98/1 140/105/1 141/102/1
f 40/101/3 42/82/3 144/83/3 143/106/3
f 53/62/6 40/101/6 143/106/6 142/63/6
f 30/98/6 61/97/6 134/104/6 140/105/6
f 21/44/1 23/43/1 69/107/1 77/108/1
f 20/46/3 22/45/3 76/109/3 67/110/3
f 22/45/2 21/44/2 77/108/2 76/109/2
f 23/47/4 20/46/4 67/110/4 69/111/4
f 77/108/1 69/107/1 73/41/1 78/39/1
f 67/110/3 76/109/3 75/38/3 71/32/3
f 70/112/5 68/113/5 146/114/5 148/115/5
f 69/111/4 67/110/4 71/32/4 73/31/4
f 70/112/2 74/116/2 75/38/2 76/109/2
f 68/113/2 70/112/2 76/109/2 77/108/2
f 72/117/2 68/113/2 77/108/2 78/39/2
f 74/116/2 72/117/2 78/39/2 75/38/2
f 68/113/1 72/117/1 150/118/1 146/114/1
f 74/116/3 70/112/3 148/115/3 152/119/3
f 72/117/6 74/116/6 152/119/6 150/118/6
f 107/120/1 132/121/1 91/122/1 80/123/1
f 132/121/4 108/124/4 98/49/4 91/122/4
f 108/124/3 109/125/3 97/126/3 98/49/3
f 109/125/2 107/127/2 80/128/2 97/126/2
f 81/129/5 79/130/5 82/131/5 83/132/5
f 126/133/1 135/134/1 87/58/1 85/135/1
f 135/134/4 137/136/4 102/54/4 87/58/4
f 137/136/3 116/137/3 89/138/3 102/54/3
f 116/137/2 126/139/2 85/140/2 89/138/2
f 86/141/5 84/142/5 88/143/5 90/144/5
f 97/126/5 85/145/5 87/57/5 98/49/5
f 151/146/2 92/147/2 94/148/2 149/149/2
f 95/150/6 94/148/6 92/151/6 93/152/6
f 153/153/4 95/150/4 93/154/4 156/155/4
f 149/149/3 94/148/3 95/150/3 153/153/3
f 156/155/1 93/154/1 92/156/1 151/157/1
f 91/122/1 96/158/1 100/159/1 80/123/1
f 98/49/4 101/48/4 96/158/4 91/122/4
f 80/128/2 100/160/2 99/161/2 97/126/2
f 89/138/3 103/162/3 104/55/3 102/54/3
f 105/56/6 104/55/6 103/162/6 106/163/6
f 106/163/2 103/162/2 89/138/2 85/145/2
f 87/57/4 102/54/4 104/55/4 105/56/4
f 99/161/2 106/163/2 85/145/2 97/126/2
f 101/48/6 105/56/6 106/163/6 99/161/6
f 98/49/4 87/57/4 105/56/4 101/48/4
f 111/164/2 112/165/2 107/127/2 109/125/2
f 112/166/1 133/167/1 132/121/1 107/120/1
f 79/168/1 81/169/1 133/167/1 112/166/1
f 81/169/4 83/132/4 110/170/4 133/167/4
f 83/132/3 82/131/3 111/164/3 110/170/3
f 82/131/2 79/171/2 112/165/2 111/164/2
f 84/172/1 86/173/1 138/174/1 125/175/1
f 123/176/6 130/177/6 128/178/6 121/179/6
f 117/180/2 125/181/2 126/139/2 116/137/2
f 139/182/3 117/180/3 116/137/3 137/136/3
f 86/173/4 90/144/4 139/182/4 138/174/4
f 90/144/3 88/143/3 117/180/3 139/182/3
f 88/143/2 84/183/2 125/181/2 117/180/2
f 122/184/1 109/185/1 111/186/1 121/179/1
f 121/179/1 111/186/1 110/187/1 123/176/1
f 123/176/1 110/187/1 108/188/1 124/189/1
f 129/190/11 126/133/11 125/175/11 128/191/11
f 131/192/8 135/134/8 126/133/8 129/190/8
f 130/193/12 138/174/12 135/134/12 131/192/12
f 128/191/13 125/175/13 138/174/13 130/193/13
f 124/189/1 108/188/1 109/185/1 122/184/1
f 124/189/2 131/194/2 130/177/2 123/176/2
f 121/179/4 128/178/4 129/195/4 122/184/4
f 122/184/5 129/195/5 131/194/5 124/189/5
f 134/104/4 108/124/4 132/121/4 140/105/4
f 140/105/4 132/121/4 133/167/4 141/102/4
f 136/103/4 110/170/4 108/124/4 134/104/4
f 141/102/4 133/167/4 110/170/4 136/103/4
f 143/106/4 137/136/4 135/134/4 142/63/4
f 142/63/4 135/134/4 138/174/4 127/64/4
f 144/83/4 139/182/4 137/136/4 143/106/4
f 127/64/4 138/174/4 139/182/4 144/83/4
f 141/102/4 136/103/4 134/104/4 140/105/4
f 127/64/4 144/83/4 143/106/4 142/63/4
f 96/158/1 155/196/1 147/197/1 100/159/1
f 99/161/3 145/198/3 154/199/3 101/48/3
f 101/48/4 154/199/4 155/196/4 96/158/4
f 100/160/2 147/200/2 145/198/2 99/161/2
f 155/196/1 156/155/1 151/157/1 147/197/1
f 145/198/3 149/149/3 153/153/3 154/199/3
f 147/200/2 151/146/2 149/149/2 145/198/2
f 148/115/4 154/199/4 153/153/4 152/119/4
f 146/114/4 155/196/4 154/199/4 148/115/4
f 150/118/4 156/155/4 155/196/4 146/114/4
f 152/119/4 153/153/4 156/155/4 150/118/4
f 148/115/4 152/119/4 150/118/4 146/114/4
l 36 44
l 38 46
l 45 37
l 113 118
l 115 120
l 119 114
