# Blender v2.92.0 OBJ File: 'quarto.blend'
# www.blender.org
mtllib lapis.mtl
o lapis_Circle.002
v 40.425125 -5.383627 -4.775780
v 40.402023 -5.166019 -4.726308
v 40.315643 -5.073030 -4.541308
v 40.231026 -5.174683 -4.360087
v 40.211891 -5.394431 -4.319110
v 40.272648 -5.566799 -4.449233
v 40.367546 -5.561991 -4.652470
v 40.413574 -5.274823 -4.751044
v 40.358833 -5.119524 -4.633808
v 40.273335 -5.123857 -4.450698
v 40.221458 -5.284557 -4.339599
v 40.242271 -5.480615 -4.384171
v 40.320099 -5.564394 -4.550851
v 40.396336 -5.472809 -4.714125
v 43.445004 -5.274823 -3.335564
v 43.549965 -5.383626 -3.316684
v 43.390263 -5.119524 -3.218328
v 43.526863 -5.166019 -3.267212
v 43.304760 -5.123857 -3.035218
v 43.440479 -5.073030 -3.082211
v 43.252884 -5.284556 -2.924119
v 43.355862 -5.174683 -2.900991
v 43.273697 -5.480614 -2.968692
v 43.336727 -5.394430 -2.860014
v 43.351528 -5.564394 -3.135371
v 43.397488 -5.566798 -2.990136
v 43.427765 -5.472808 -3.298645
v 43.492386 -5.561990 -3.193374
v 44.052288 -5.319914 -2.740462
v 41.878063 -5.073030 -3.811760
v 41.874546 -5.119524 -3.926068
v 41.964443 -5.166019 -3.996760
v 41.793442 -5.174683 -3.630539
v 41.789047 -5.123857 -3.742958
v 41.774311 -5.394430 -3.589562
v 41.737171 -5.284556 -3.631859
v 41.835068 -5.566799 -3.719685
v 41.757984 -5.480614 -3.676432
v 41.929966 -5.561990 -3.922922
v 41.835812 -5.564394 -3.843112
v 41.987545 -5.383627 -4.046232
v 41.912052 -5.472808 -4.006385
v 41.929291 -5.274823 -4.043304
v 42.659271 -5.073030 -3.446985
v 42.574654 -5.174683 -3.265765
v 42.555519 -5.394430 -3.224788
v 42.616280 -5.566798 -3.354911
v 42.711178 -5.561990 -3.558148
v 42.768753 -5.383626 -3.681458
v 42.632404 -5.119524 -3.572198
v 42.745655 -5.166019 -3.631986
v 42.546906 -5.123857 -3.389088
v 42.495029 -5.284556 -3.277989
v 42.515842 -5.480614 -3.322562
v 42.593670 -5.564394 -3.489242
v 42.669907 -5.472808 -3.652515
v 42.687145 -5.274823 -3.689435
v 41.116692 -5.119524 -4.279938
v 41.183235 -5.166019 -4.361534
v 41.031189 -5.123857 -4.096828
v 40.979313 -5.284556 -3.985729
v 41.000126 -5.480615 -4.030302
v 41.077957 -5.564394 -4.196981
v 41.154194 -5.472809 -4.360255
v 41.171432 -5.274823 -4.397174
v 41.096851 -5.073030 -4.176534
v 41.012234 -5.174683 -3.995313
v 40.993099 -5.394430 -3.954336
v 41.053860 -5.566799 -4.084459
v 41.148758 -5.561990 -4.287696
v 41.206337 -5.383627 -4.411006
vt 0.000000 0.000000
vt 0.000000 0.000000
vt 0.000000 0.000000
vt 0.000000 0.000000
vt 0.000000 0.000000
vt 0.000000 0.000000
vt 0.000000 0.000000
vt 0.000000 0.000000
vt 0.000000 0.000000
vt 0.000000 0.000000
vt 0.000000 0.000000
vt 0.000000 0.000000
vt 0.000000 0.000000
vt 0.000000 0.000000
vt 0.000000 0.000000
vt 0.000000 0.000000
vt 0.000000 0.000000
vt 0.000000 0.000000
vt 0.000000 0.000000
vt 0.000000 0.000000
vt 0.000000 0.000000
vt 0.000000 0.000000
vt 0.000000 0.000000
vt 0.000000 0.000000
vt 0.000000 0.000000
vt 0.000000 0.000000
vt 0.000000 0.000000
vt 0.000000 0.000000
vt 0.000000 0.000000
vt 0.000000 0.000000
vt 0.000000 0.000000
vt 0.000000 0.000000
vt 0.000000 0.000000
vt 0.000000 0.000000
vt 0.000000 0.000000
vt 0.000000 0.000000
vt 0.000000 0.000000
vt 0.000000 0.000000
vt 0.000000 0.000000
vt 0.000000 0.000000
vt 0.000000 0.000000
vt 0.000000 0.000000
vt 0.000000 0.000000
vt 0.000000 0.000000
vt 0.000000 0.000000
vt 0.000000 0.000000
vt 0.000000 0.000000
vt 0.000000 0.000000
vt 0.000000 0.000000
vt 0.000000 0.000000
vt 0.000000 0.000000
vt 0.000000 0.000000
vt 0.000000 0.000000
vt 0.000000 0.000000
vt 0.000000 0.000000
vt 0.000000 0.000000
vt 0.000000 0.000000
vt 0.000000 0.000000
vt 0.000000 0.000000
vt 0.000000 0.000000
vt 0.000000 0.000000
vt 0.000000 0.000000
vt 0.000000 0.000000
vt 0.000000 0.000000
vt 0.000000 0.000000
vt 0.000000 0.000000
vt 0.000000 0.000000
vt 0.000000 0.000000
vt 0.000000 0.000000
vt 0.000000 0.000000
vt 0.000000 0.000000
vn -0.9061 0.0000 -0.4231
vn -0.9061 0.0001 -0.4231
vn 0.2741 -0.9559 0.1054
vn -0.0995 -0.6216 0.7770
vn -0.2112 0.1969 0.9574
vn 0.0300 0.8657 0.4996
vn 0.1754 0.9101 -0.3755
vn -0.1917 0.8915 0.4105
vn -0.4144 0.2016 0.8875
vn -0.3251 -0.6401 0.6961
vn 0.0091 -0.9998 -0.0194
vn 0.3364 -0.6066 -0.7204
vn 0.4104 0.2434 -0.8789
vn 0.4104 0.2434 -0.8788
vn 0.6202 -0.5716 -0.5373
vn 0.6899 0.2293 -0.6866
vn 0.4331 0.8701 -0.2351
vn 0.3364 -0.6066 -0.7203
vn -0.3250 -0.6401 0.6961
vn 0.1754 0.9101 -0.3756
usemtl None
s off
f 13/1/1 6/2/1 12/3/1 7/4/1
f 12/3/1 5/5/1 14/6/1 7/4/1
f 5/5/1 11/7/1 1/8/1 14/6/1
f 8/9/1 1/8/1 11/7/1 4/10/1
f 2/11/1 8/9/1 4/10/1 10/12/1
f 9/13/2 2/11/2 10/12/2 3/14/2
f 26/15/3 25/16/3 28/17/3 29/18/3
f 23/19/4 26/15/4 29/18/4 24/20/4
f 22/21/5 21/22/5 24/20/5 29/18/5
f 20/23/6 19/24/6 22/21/6 29/18/6
f 50/25/7 44/26/7 20/23/7 17/27/7
f 51/28/7 50/25/7 17/27/7 18/29/7
f 52/30/8 45/31/8 22/21/8 19/24/8
f 44/26/8 52/30/8 19/24/8 20/23/8
f 53/32/9 46/33/9 24/20/9 21/22/9
f 45/31/9 53/32/9 21/22/9 22/21/9
f 54/34/10 47/35/10 26/15/10 23/19/10
f 46/33/10 54/34/10 23/19/10 24/20/10
f 55/36/11 48/37/11 28/17/11 25/16/11
f 47/35/11 55/36/11 25/16/11 26/15/11
f 56/38/12 49/39/12 16/40/12 27/41/12
f 48/37/12 56/38/12 27/41/12 28/17/12
f 57/42/13 51/28/13 18/29/13 15/43/13
f 49/39/14 57/42/14 15/43/14 16/40/14
f 28/17/15 27/41/15 16/40/15 29/18/15
f 16/40/16 15/43/16 18/29/16 29/18/16
f 18/29/17 17/27/17 20/23/17 29/18/17
f 71/44/14 65/45/14 43/46/14 41/47/14
f 65/45/14 59/48/14 32/49/14 43/46/14
f 70/50/18 64/51/18 42/52/18 39/53/18
f 64/51/12 71/44/12 41/47/12 42/52/12
f 69/54/11 63/55/11 40/56/11 37/57/11
f 63/55/11 70/50/11 39/53/11 40/56/11
f 68/58/10 62/59/10 38/60/10 35/61/10
f 62/59/19 69/54/19 37/57/19 38/60/19
f 67/62/9 61/63/9 36/64/9 33/65/9
f 61/63/9 68/58/9 35/61/9 36/64/9
f 66/66/8 60/67/8 34/68/8 30/69/8
f 60/67/8 67/62/8 33/65/8 34/68/8
f 59/48/20 58/70/20 31/71/20 32/49/20
f 58/70/20 66/66/20 30/69/20 31/71/20
f 41/47/14 43/46/14 57/42/14 49/39/14
f 43/46/14 32/49/14 51/28/14 57/42/14
f 39/53/12 42/52/12 56/38/12 48/37/12
f 42/52/12 41/47/12 49/39/12 56/38/12
f 37/57/11 40/56/11 55/36/11 47/35/11
f 40/56/11 39/53/11 48/37/11 55/36/11
f 35/61/10 38/60/10 54/34/10 46/33/10
f 38/60/10 37/57/10 47/35/10 54/34/10
f 33/65/9 36/64/9 53/32/9 45/31/9
f 36/64/9 35/61/9 46/33/9 53/32/9
f 30/69/8 34/68/8 52/30/8 44/26/8
f 34/68/8 33/65/8 45/31/8 52/30/8
f 32/49/7 31/71/7 50/25/7 51/28/7
f 31/71/20 30/69/20 44/26/20 50/25/20
f 9/13/7 3/14/7 66/66/7 58/70/7
f 2/11/20 9/13/20 58/70/20 59/48/20
f 10/12/8 4/10/8 67/62/8 60/67/8
f 3/14/8 10/12/8 60/67/8 66/66/8
f 11/7/9 5/5/9 68/58/9 61/63/9
f 4/10/9 11/7/9 61/63/9 67/62/9
f 12/3/10 6/2/10 69/54/10 62/59/10
f 5/5/10 12/3/10 62/59/10 68/58/10
f 13/1/11 7/4/11 70/50/11 63/55/11
f 6/2/11 13/1/11 63/55/11 69/54/11
f 14/6/18 1/8/18 71/44/18 64/51/18
f 7/4/12 14/6/12 64/51/12 70/50/12
f 8/9/14 2/11/14 59/48/14 65/45/14
f 1/8/14 8/9/14 65/45/14 71/44/14
l 23 28
l 24 27
l 21 16
l 15 22
l 18 19
