# Blender v2.92.0 OBJ File: 'quarto.blend'
# www.blender.org
mtllib luminaria.mtl
o luminaria_Circle.001
v -0.215482 0.000000 -0.215482
v -0.304737 0.000000 0.000000
v 0.000000 0.000000 0.304737
v 0.215482 0.000000 0.215482
v 0.215482 5.451105 -1.582021
v 0.000000 5.375380 -1.624199
v 0.215482 5.816732 -1.378366
v 0.304737 5.633918 -1.480193
v -0.215482 5.816732 -1.378366
v 0.000000 5.892456 -1.336187
v -0.304737 5.633918 -1.480193
v -0.215482 5.451105 -1.582021
v -0.000000 5.038157 -1.253363
v 0.215482 5.108977 -1.199037
v 0.215482 5.450917 -0.936728
v -0.215482 5.450917 -0.936728
v -0.304737 5.279947 -1.067882
v 0.000000 5.521736 -0.882402
v 0.304737 5.279947 -1.067882
v -0.215482 5.108977 -1.199037
v 0.000000 2.859843 -0.304737
v -0.215482 4.139860 -0.508577
v 0.215482 2.859843 -0.215482
v 0.215482 2.859843 0.215482
v 0.304737 4.264160 -0.332560
v -0.215482 2.859843 0.215482
v 0.000000 4.439947 -0.083635
v -0.304737 4.264160 -0.332560
v -0.304737 2.859843 0.000000
v -0.215482 4.388460 -0.156543
v 0.000000 2.859843 0.304737
v 0.215482 4.388460 -0.156543
v 0.304737 2.859843 -0.000000
v 0.215482 4.139860 -0.508577
v -0.215482 2.859843 -0.215482
v 0.000000 4.088373 -0.581486
v -0.324447 5.361687 -1.589474
v -0.453647 5.626315 -1.442076
v -0.012530 6.000556 -1.233622
v 0.299387 5.890944 -1.294677
v 0.428587 5.626315 -1.442076
v 0.299387 5.361687 -1.589474
v -0.012530 5.252072 -1.650528
v -0.324447 5.890944 -1.294677
v -0.324447 6.039788 -1.561600
v -0.012530 5.400916 -1.917451
v 0.299387 5.510530 -1.856398
v 0.428587 5.775158 -1.708999
v 0.299387 6.039788 -1.561600
v -0.012530 6.149400 -1.500545
v -0.453647 5.775158 -1.708999
v -0.324447 5.510530 -1.856398
v -0.929360 6.706619 -4.596477
v -1.795384 5.486082 -3.739767
v -0.937770 4.232370 -2.923454
v 0.785868 4.199194 -2.963852
v 1.651893 5.419731 -3.820565
v 0.794279 6.673444 -4.636876
v -0.255685 7.420620 -1.706788
v -0.527163 7.038012 -1.438229
v -0.258322 6.645003 -1.182335
v 0.281998 6.634604 -1.194999
v 0.553476 7.017213 -1.463558
v 0.284634 7.410221 -1.719452
v -0.222998 7.808347 -1.125591
v -0.468464 7.462399 -0.882765
v -0.225382 7.107047 -0.651389
v 0.263166 7.097643 -0.662839
v 0.508631 7.443592 -0.905666
v 0.265549 7.798944 -1.137041
v -0.740352 7.223133 -3.367246
v -1.455525 6.215198 -2.659763
v 0.683051 7.195736 -3.400606
v 0.676105 5.152470 -2.019003
v 1.391279 6.160405 -2.726486
v -0.747297 5.179866 -1.985641
v 0.000000 0.000000 -0.304737
v -0.215482 0.000000 0.215482
v 0.304737 0.000000 -0.000000
v 0.215482 0.000000 -0.215482
v -0.000000 0.000000 -2.875696
v -1.385984 0.000000 -2.301602
v -1.960078 0.000000 -0.915618
v -1.385984 0.000000 0.470366
v 0.000000 0.000000 1.044460
v 1.385985 0.000000 0.470366
v 1.960078 0.000000 -0.915618
v 1.385985 0.000000 -2.301602
v -1.385984 -0.255557 -2.301602
v -0.000000 -0.255557 -2.875696
v -1.960078 -0.255557 -0.915618
v -1.385984 -0.255557 0.470366
v 0.000000 -0.255557 1.044460
v 1.385985 -0.255557 0.470366
v 1.960078 -0.255557 -0.915618
v 1.385985 -0.255557 -2.301602
vt 0.000000 0.000000
vt 0.000000 0.000000
vt 0.000000 0.000000
vt 0.000000 0.000000
vt 0.000000 0.000000
vt 0.000000 0.000000
vt 0.000000 0.000000
vt 0.000000 0.000000
vt 0.000000 0.000000
vt 0.000000 0.000000
vt 0.000000 0.000000
vt 0.000000 0.000000
vt 0.000000 0.000000
vt 0.000000 0.000000
vt 0.000000 0.000000
vt 0.000000 0.000000
vt 0.000000 0.000000
vt 0.000000 0.000000
vt 0.000000 0.000000
vt 0.000000 0.000000
vt 0.000000 0.000000
vt 0.000000 0.000000
vt 0.000000 0.000000
vt 0.000000 0.000000
vt 0.000000 0.000000
vt 0.000000 0.000000
vt 0.000000 0.000000
vt 0.000000 0.000000
vt 0.000000 0.000000
vt 0.000000 0.000000
vt 0.000000 0.000000
vt 0.000000 0.000000
vt 0.000000 0.000000
vt 0.000000 0.000000
vt 0.000000 0.000000
vt 0.000000 0.000000
vt 0.000000 0.000000
vt 0.000000 0.000000
vt 0.000000 0.000000
vt 0.000000 0.000000
vt 0.000000 0.000000
vt 0.000000 0.000000
vt 0.000000 0.000000
vt 0.000000 0.000000
vt 0.000000 0.000000
vt 0.000000 0.000000
vt 0.000000 0.000000
vt 0.000000 0.000000
vt 0.000000 0.000000
vt 0.000000 0.000000
vt 0.000000 0.000000
vt 0.000000 0.000000
vt 0.000000 0.000000
vt 0.000000 0.000000
vt 0.000000 0.000000
vt 0.000000 0.000000
vt 0.000000 0.000000
vt 0.000000 0.000000
vt 0.000000 0.000000
vt 0.000000 0.000000
vt 0.000000 0.000000
vt 0.000000 0.000000
vt 0.000000 0.000000
vt 0.000000 0.000000
vt 0.000000 0.000000
vt 0.000000 0.000000
vt 0.000000 0.000000
vt 0.000000 0.000000
vt 0.000000 0.000000
vt 0.000000 0.000000
vt 0.000000 0.000000
vt 0.000000 0.000000
vt 0.000000 0.000000
vt 0.000000 0.000000
vt 0.000000 0.000000
vt 0.000000 0.000000
vt 0.000000 0.000000
vt 0.000000 0.000000
vt 0.000000 0.000000
vt 0.000000 0.000000
vt 0.000000 0.000000
vt 0.000000 0.000000
vt 0.000000 0.000000
vt 0.000000 0.000000
vt 0.000000 0.000000
vt 0.000000 0.000000
vt 0.000000 0.000000
vt 0.000000 0.000000
vt 0.000000 0.000000
vt 0.000000 0.000000
vt 0.000000 0.000000
vt 0.000000 0.000000
vt 0.000000 0.000000
vt 0.000000 0.000000
vt 0.000000 0.000000
vt 0.000000 0.000000
vn 0.9202 0.2945 0.2578
vn -0.3753 -0.7159 -0.5888
vn -0.9202 0.2945 0.2578
vn 0.3734 0.6891 0.6210
vn 0.9205 -0.2987 -0.2518
vn 0.3753 -0.7159 -0.5888
vn -0.9205 -0.2987 -0.2518
vn -0.3734 0.6891 0.6210
vn -0.3732 -0.8103 -0.4518
vn -0.1130 0.2184 -0.9693
vn 0.3732 0.8103 0.4518
vn 0.1218 0.1954 -0.9731
vn 0.3732 -0.8103 -0.4518
vn 0.2951 0.3509 -0.8887
vn 0.2740 0.5666 -0.7771
vn -0.3732 0.8103 0.4518
vn -0.3754 0.5366 0.7558
vn -0.9210 -0.2295 -0.3147
vn 0.3762 -0.5494 -0.7461
vn 0.9210 -0.2295 -0.3147
vn 0.3754 0.5366 0.7558
vn -0.9209 0.2274 0.3166
vn -0.3762 -0.5494 -0.7461
vn 0.9209 0.2274 0.3166
vn -0.3665 -0.2211 -0.9038
vn -0.9167 0.0907 0.3892
vn 0.3661 0.2061 0.9075
vn 0.9168 -0.0933 -0.3884
vn 0.3665 -0.2211 -0.9038
vn -0.9168 -0.0933 -0.3884
vn -0.3661 0.2061 0.9075
vn 0.9167 0.0907 0.3892
vn 0.9239 0.0000 -0.3827
vn -0.3827 0.0000 -0.9239
vn -0.9239 0.0000 0.3827
vn 0.9239 0.0000 0.3827
vn 0.3827 0.0000 -0.9239
vn -0.9239 0.0000 -0.3827
vn -0.3827 0.0000 0.9239
vn 0.3827 0.0000 0.9239
vn 0.9198 0.3427 0.1911
vn -0.9198 0.3427 0.1911
vn -0.2477 0.3763 -0.8928
vn 0.9198 -0.3427 -0.1911
vn -0.2325 0.5574 -0.7970
vn -0.9198 -0.3427 -0.1911
vn -0.0963 0.6792 -0.7276
vn 0.1027 0.6909 -0.7156
vn 0.7562 -0.6382 -0.1448
vn -0.0162 -0.9923 0.1228
vn -0.7836 0.1295 -0.6076
vn 0.7587 0.0998 -0.6438
vn -0.7861 -0.6085 -0.1087
vn -0.0112 0.4836 -0.8752
vn -0.0030 -0.8318 0.5551
vn -0.8623 0.3665 -0.3494
vn 0.8623 0.3543 -0.3618
vn -0.8674 -0.4265 0.2563
vn -0.0009 0.7544 -0.6564
vn 0.8636 -0.4405 0.2453
vn -0.0031 0.7038 -0.7104
vn -0.8564 -0.4988 0.1337
vn 0.8446 0.2811 -0.4556
vn -0.8536 0.3138 -0.4158
vn -0.0086 -0.9214 0.3885
vn 0.8419 -0.5315 0.0939
vn -0.0302 -0.5598 -0.8281
vn 0.0000 -1.0000 0.0000
vn 0.0000 1.0000 -0.0000
usemtl None
s off
f 17/1/1 20/2/1 12/3/1 11/4/1
f 15/5/2 18/6/2 10/7/2 7/8/2
f 14/9/3 19/10/3 8/11/3 5/12/3
f 20/2/4 13/13/4 6/14/4 12/3/4
f 16/15/5 17/1/5 11/4/5 9/16/5
f 18/6/6 16/15/6 9/16/6 10/7/6
f 19/10/7 15/5/7 7/8/7 8/11/7
f 13/13/8 14/9/8 5/12/8 6/14/8
f 40/17/9 39/18/9 50/19/9 49/20/9
f 12/3/10 6/14/10 43/21/10 37/22/10
f 37/22/11 43/21/11 46/23/11 52/24/11
f 6/14/12 5/12/12 42/25/12 43/21/12
f 39/18/13 44/26/13 45/27/13 50/19/13
f 5/12/14 8/11/14 41/28/14 42/25/14
f 8/11/15 7/8/15 40/17/15 41/28/15
f 43/21/16 42/25/16 47/29/16 46/23/16
f 36/30/17 34/31/17 14/9/17 13/13/17
f 25/32/18 32/33/18 15/5/18 19/10/18
f 27/34/19 30/35/19 16/15/19 18/6/19
f 30/35/20 28/36/20 17/1/20 16/15/20
f 22/37/21 36/30/21 13/13/21 20/2/21
f 34/31/22 25/32/22 19/10/22 14/9/22
f 32/33/23 27/34/23 18/6/23 15/5/23
f 28/36/24 22/37/24 20/2/24 17/1/24
f 24/38/25 31/39/25 27/34/25 32/33/25
f 23/40/26 33/41/26 25/32/26 34/31/26
f 35/42/27 21/43/27 36/30/27 22/37/27
f 26/44/28 29/45/28 28/36/28 30/35/28
f 31/39/29 26/44/29 30/35/29 27/34/29
f 33/41/30 24/38/30 32/33/30 25/32/30
f 21/43/31 23/40/31 34/31/31 36/30/31
f 29/45/32 35/42/32 22/37/32 28/36/32
f 78/46/33 2/47/33 29/45/33 26/44/33
f 4/48/34 3/49/34 31/39/34 24/38/34
f 80/50/35 79/51/35 33/41/35 23/40/35
f 2/47/36 1/52/36 35/42/36 29/45/36
f 3/49/37 78/46/37 26/44/37 31/39/37
f 79/51/38 4/48/38 24/38/38 33/41/38
f 77/53/39 80/50/39 23/40/39 21/43/39
f 1/52/40 77/53/40 21/43/40 35/42/40
f 38/54/41 37/22/41 52/24/41 51/55/41
f 42/25/42 41/28/42 48/56/42 47/29/42
f 11/4/43 12/3/43 37/22/43 38/54/43
f 44/26/44 38/54/44 51/55/44 45/27/44
f 9/16/45 11/4/45 38/54/45 44/26/45
f 41/28/46 40/17/46 49/20/46 48/56/46
f 10/7/47 9/16/47 44/26/47 39/18/47
f 7/8/48 10/7/48 39/18/48 40/17/48
f 72/57/49 71/58/49 59/59/49 60/60/49
f 71/58/50 73/61/50 64/62/50 59/59/50
f 75/63/51 74/64/51 62/65/51 63/66/51
f 76/67/52 72/57/52 60/60/52 61/68/52
f 73/61/53 75/63/53 63/66/53 64/62/53
f 74/64/54 76/67/54 61/68/54 62/65/54
f 59/59/55 64/62/55 70/69/55 65/70/55
f 63/66/56 62/65/56 68/71/56 69/72/56
f 61/68/57 60/60/57 66/73/57 67/74/57
f 64/62/58 63/66/58 69/72/58 70/69/58
f 62/65/59 61/68/59 67/74/59 68/71/59
f 60/60/60 59/59/60 65/70/60 66/73/60
f 56/75/61 55/76/61 76/67/61 74/64/61
f 58/77/62 57/78/62 75/63/62 73/61/62
f 55/76/63 54/79/63 72/57/63 76/67/63
f 57/78/64 56/75/64 74/64/64 75/63/64
f 53/80/65 58/77/65 73/61/65 71/58/65
f 54/79/66 53/80/66 71/58/66 72/57/66
f 66/73/67 65/70/67 70/69/67 69/72/67
f 67/74/67 66/73/67 69/72/67 68/71/67
f 82/81/68 81/82/68 88/83/68 83/84/68
f 84/85/68 83/84/68 88/83/68 87/86/68
f 85/87/68 84/85/68 87/86/68 86/88/68
f 89/89/69 91/90/69 96/91/69 90/92/69
f 92/93/69 95/94/69 96/91/69 91/90/69
f 93/95/69 94/96/69 95/94/69 92/93/69
f 87/86/35 88/83/35 96/91/35 95/94/35
f 85/87/34 86/88/34 94/96/34 93/95/34
f 83/84/33 84/85/33 92/93/33 91/90/33
f 81/82/40 82/81/40 89/89/40 90/92/40
f 88/83/39 81/82/39 90/92/39 96/91/39
f 86/88/38 87/86/38 95/94/38 94/96/38
f 84/85/37 85/87/37 93/95/37 92/93/37
f 82/81/36 83/84/36 91/90/36 89/89/36
