# Blender v2.92.0 OBJ File: 'quarto.blend'
# www.blender.org
mtllib mesa.mtl
o mesa_Cube.013
v 38.947029 -16.206833 -16.452126
v 38.947029 -5.559170 -16.452126
v 38.947029 -16.206833 -16.961998
v 38.947029 -5.559170 -16.961998
v 45.165558 -16.206833 -16.452126
v 45.165558 -5.559170 -16.452126
v 45.165558 -16.206833 -16.961998
v 45.165558 -5.559170 -16.961998
v 38.947029 -5.938485 -16.452126
v 38.947029 -5.938485 -16.961998
v 45.165558 -5.938485 -16.961998
v 45.165558 -5.938485 -16.452126
v 44.811512 -16.206833 -16.961998
v 44.811512 -5.559170 -16.961998
v 44.811512 -16.206833 -16.452126
v 44.811512 -5.559170 -16.452126
v 44.811512 -5.938485 -16.452126
v 44.811512 -5.938485 -16.961998
v 38.947029 -9.127275 -16.961998
v 45.165558 -9.127275 -16.961998
v 45.165558 -9.127275 -16.452126
v 38.947029 -9.127275 -16.452126
v 44.811512 -9.127275 -16.961998
v 44.811512 -9.127275 -16.452126
v 38.947029 -16.206833 5.674335
v 38.947029 -5.559170 5.674335
v 38.947029 -16.206833 6.184209
v 38.947029 -5.559170 6.184209
v 45.165558 -16.206833 5.674335
v 45.165558 -5.559170 5.674335
v 45.165558 -16.206833 6.184209
v 45.165558 -5.559170 6.184209
v 38.947029 -5.938485 5.674335
v 38.947029 -5.938485 6.184209
v 45.165558 -5.938485 6.184209
v 45.165558 -5.938485 5.674335
v 44.811512 -16.206833 6.184209
v 44.811512 -5.559170 6.184209
v 44.811512 -16.206833 5.674335
v 44.811512 -5.559170 5.674335
v 44.811512 -5.938485 5.674335
v 44.811512 -5.938485 6.184209
v 38.947029 -9.127275 6.184209
v 45.165558 -9.127275 6.184209
v 45.165558 -9.127275 5.674335
v 38.947029 -9.127275 5.674335
v 44.811512 -9.127275 6.184209
v 44.811512 -9.127275 5.674335
v 38.947029 -5.938485 -5.388895
v 38.947029 -5.559170 -5.388895
v 44.811512 -5.559170 -5.388895
v 45.165558 -5.559170 -5.388895
v 45.165558 -5.938485 -5.388895
v 44.811512 -5.938485 -5.388895
v 45.165558 -9.127275 -5.388895
v 44.811512 -9.127275 -5.388895
vt 0.616094 0.000000
vt 0.625000 0.000000
vt 0.625000 0.250000
vt 0.616094 0.250000
vt 0.616094 0.485767
vt 0.625000 0.485767
vt 0.625000 0.500000
vt 0.616094 0.500000
vt 0.625000 0.750000
vt 0.616094 0.750000
vt 0.639233 0.750000
vt 0.875000 0.750000
vt 0.875000 0.750000
vt 0.639233 0.750000
vt 0.360767 0.500000
vt 0.375000 0.500000
vt 0.375000 0.750000
vt 0.360767 0.750000
vt 0.639233 0.500000
vt 0.875000 0.500000
vt 0.541223 0.764233
vt 0.616094 0.764233
vt 0.616094 1.000000
vt 0.541223 1.000000
vt 0.541223 0.500000
vt 0.541223 0.750000
vt 0.541223 0.485767
vt 0.541223 0.000000
vt 0.541223 0.250000
vt 0.625000 0.750000
vt 0.616094 0.750000
vt 0.125000 0.500000
vt 0.125000 0.750000
vt 0.541223 0.764233
vt 0.616094 0.764233
vt 0.375000 0.764233
vt 0.375000 0.250000
vt 0.375000 0.485767
vt 0.375000 0.000000
vt 0.375000 1.000000
vt 0.541223 0.750000
vt 0.616094 1.000000
vt 0.616094 0.000000
vt 0.625000 0.000000
vt 0.616094 0.000000
vt 0.616094 0.250000
vt 0.625000 0.250000
vt 0.625000 0.000000
vt 0.616094 0.485767
vt 0.616094 0.500000
vt 0.625000 0.500000
vt 0.625000 0.485767
vt 0.616094 0.750000
vt 0.625000 0.750000
vt 0.639233 0.750000
vt 0.875000 0.750000
vt 0.360767 0.500000
vt 0.360767 0.750000
vt 0.375000 0.750000
vt 0.375000 0.500000
vt 0.639233 0.500000
vt 0.875000 0.500000
vt 0.541223 0.764233
vt 0.541223 1.000000
vt 0.616094 1.000000
vt 0.616094 0.764233
vt 0.541223 0.500000
vt 0.541223 0.750000
vt 0.541223 0.485767
vt 0.541223 0.000000
vt 0.541223 0.250000
vt 0.125000 0.500000
vt 0.125000 0.750000
vt 0.375000 0.764233
vt 0.375000 0.250000
vt 0.375000 0.485767
vt 0.375000 0.000000
vt 0.375000 1.000000
vt 0.625000 1.000000
vt 0.625000 0.764234
vn -1.0000 0.0000 0.0000
vn 0.0000 0.0000 -1.0000
vn 1.0000 0.0000 0.0000
vn 0.0000 1.0000 0.0000
vn 0.0000 -1.0000 0.0000
vn 0.0000 0.0000 1.0000
usemtl None
s off
f 9/1/1 2/2/1 4/3/1 10/4/1
f 18/5/2 14/6/2 8/7/2 11/8/2
f 11/8/3 8/7/3 6/9/3 12/10/3
f 16/11/4 2/12/4 50/13/4 51/14/4
f 13/15/5 7/16/5 5/17/5 15/18/5
f 14/19/4 4/20/4 2/12/4 16/11/4
f 24/21/6 17/22/6 9/23/6 22/24/6
f 20/25/3 11/8/3 12/10/3 21/26/3
f 23/27/2 18/5/2 11/8/2 20/25/2
f 22/28/1 9/1/1 10/4/1 19/29/1
f 19/29/2 10/4/2 18/5/2 23/27/2
f 12/10/3 6/9/3 52/30/3 53/31/3
f 8/7/4 14/19/4 16/11/4 6/9/4
f 3/32/5 13/15/5 15/18/5 1/33/5
f 17/22/1 24/21/1 56/34/1 54/35/1
f 10/4/2 4/3/2 14/6/2 18/5/2
f 5/17/6 21/26/6 24/21/6 15/36/6
f 3/37/2 19/29/2 23/27/2 13/38/2
f 1/39/1 22/28/1 19/29/1 3/37/1
f 13/38/2 23/27/2 20/25/2 7/16/2
f 7/16/3 20/25/3 21/26/3 5/17/3
f 15/36/6 24/21/6 22/24/6 1/40/6
f 24/21/5 21/26/5 55/41/5 56/34/5
f 9/23/5 17/22/5 54/35/5 49/42/5
f 21/26/3 12/10/3 53/31/3 55/41/3
f 6/9/4 16/11/4 51/14/4 52/30/4
f 2/2/1 9/1/1 49/43/1 50/44/1
f 33/45/1 34/46/1 28/47/1 26/48/1
f 42/49/6 35/50/6 32/51/6 38/52/6
f 35/50/3 36/53/3 30/54/3 32/51/3
f 40/55/4 51/14/4 50/13/4 26/56/4
f 37/57/5 39/58/5 29/59/5 31/60/5
f 38/61/4 40/55/4 26/56/4 28/62/4
f 48/63/2 46/64/2 33/65/2 41/66/2
f 44/67/3 45/68/3 36/53/3 35/50/3
f 47/69/6 44/67/6 35/50/6 42/49/6
f 46/70/1 43/71/1 34/46/1 33/45/1
f 43/71/6 47/69/6 42/49/6 34/46/6
f 36/53/3 53/31/3 52/30/3 30/54/3
f 32/51/4 30/54/4 40/55/4 38/61/4
f 27/72/5 25/73/5 39/58/5 37/57/5
f 41/66/1 54/35/1 56/34/1 48/63/1
f 34/46/6 42/49/6 38/52/6 28/47/6
f 29/59/2 39/74/2 48/63/2 45/68/2
f 27/75/6 37/76/6 47/69/6 43/71/6
f 25/77/1 27/75/1 43/71/1 46/70/1
f 37/76/6 31/60/6 44/67/6 47/69/6
f 31/60/3 29/59/3 45/68/3 44/67/3
f 39/74/2 25/78/2 46/64/2 48/63/2
f 54/35/2 49/42/2 50/79/2 51/80/2
f 55/41/2 56/34/2 54/35/2 53/31/2
f 53/31/2 54/35/2 51/80/2 52/30/2
f 48/63/5 56/34/5 55/41/5 45/68/5
f 33/65/5 49/42/5 54/35/5 41/66/5
f 45/68/3 55/41/3 53/31/3 36/53/3
f 30/54/4 52/30/4 51/14/4 40/55/4
f 26/48/1 50/44/1 49/43/1 33/45/1
