# Blender v2.92.0 OBJ File: 'quarto.blend'
# www.blender.org
mtllib bau.mtl
o Cube_Cube.005
v -0.282648 -16.086412 -64.937462
v -0.282648 -11.397167 -64.913521
v -0.282646 -16.086412 -59.348221
v -0.282647 -6.013709 -63.410843
v -7.690398 -16.086412 -64.937462
v -7.690398 -11.397167 -64.913521
v -7.690396 -16.086412 -59.348217
v -7.690397 -6.013709 -63.410843
v -0.282648 -11.387881 -65.846718
v -7.690399 -11.387881 -65.846718
v -0.282648 -11.305650 -65.241394
v -0.282647 -5.922191 -63.738712
v -7.690397 -5.922191 -63.738708
v -7.690398 -11.305650 -65.241386
v -0.282647 -16.086412 -62.142841
v -0.282648 -8.705438 -64.162186
v -7.690397 -16.086412 -62.142841
v -7.690398 -8.705438 -64.162178
v -0.282648 -8.132107 -66.216187
v -7.690398 -8.132107 -66.216179
v -0.282647 -16.086412 -63.540154
v -7.690398 -10.051302 -64.537849
v -7.690398 -9.640495 -66.009598
v -0.282647 -11.387881 -63.540154
v -7.690398 -16.086412 -63.540154
v -0.282648 -9.640495 -66.009598
v -0.282647 -7.359574 -63.786514
v -7.690397 -16.086412 -60.745529
v -0.282648 -6.948767 -65.258263
v -0.282646 -16.086412 -60.745529
v -7.690397 -11.387881 -60.745529
v -7.690398 -6.948767 -65.258255
v -0.282646 -11.387881 -60.745529
v -0.282646 -11.387881 -59.348221
v -7.690396 -11.387881 -59.348217
v -7.690398 -11.387881 -63.540154
v -7.690398 -11.387881 -64.937462
v -7.690399 -11.387881 -65.846718
v -0.282648 -11.387881 -64.937462
v -0.282648 -11.387881 -65.846718
v -0.282648 -10.051302 -64.537857
v -0.282647 -11.387881 -62.142841
v -7.690397 -7.359574 -63.786510
v -7.690397 -11.387881 -62.142841
vt 0.375000 0.187500
vt 0.625000 0.187500
vt 0.625000 0.250000
vt 0.375000 0.250000
vt 0.625000 0.500000
vt 0.375000 0.500000
vt 0.375000 0.687500
vt 0.625000 0.687500
vt 0.625000 0.750000
vt 0.375000 0.750000
vt 0.375000 1.000000
vt 0.625000 1.000000
vt 0.125000 0.687500
vt 0.125000 0.750000
vt 0.625000 0.562500
vt 0.625000 0.500000
vt 0.625000 0.500000
vt 0.625000 0.562500
vt 0.625000 0.750000
vt 0.625000 1.000000
vt 0.625000 1.000000
vt 0.625000 0.750000
vt 0.625000 0.687500
vt 0.625000 0.750000
vt 0.875000 0.750000
vt 0.875000 0.687500
vt 0.625000 0.062500
vt 0.625000 0.000000
vt 0.625000 0.000000
vt 0.625000 0.062500
vt 0.625000 1.000000
vt 0.625000 0.750000
vt 0.625000 1.000000
vt 0.625000 0.250000
vt 0.625000 0.250000
vt 0.625000 0.187500
vt 0.625000 0.125000
vt 0.625000 0.125000
vt 0.625000 0.187500
vt 0.625000 0.625000
vt 0.875000 0.625000
vt 0.875000 0.562500
vt 0.625000 0.687500
vt 0.625000 0.625000
vt 0.125000 0.562500
vt 0.375000 0.562500
vt 0.375000 0.625000
vt 0.125000 0.625000
vt 0.625000 0.562500
vt 0.625000 0.625000
vt 0.375000 0.062500
vt 0.625000 0.062500
vt 0.625000 0.125000
vt 0.375000 0.125000
vt 0.375000 0.000000
vt 0.625000 0.000000
vt 0.125000 0.500000
vt 0.875000 0.500000
vn 1.0000 0.0000 -0.0000
vn 0.0000 0.0000 1.0000
vn -1.0000 0.0000 0.0000
vn 0.0000 -1.0000 0.0000
vn 0.0000 0.4189 0.9080
vn 0.0000 -0.9632 -0.2689
vn 0.0000 0.9632 0.2689
vn 0.0000 -0.6292 0.7773
vn 0.0000 0.1357 0.9908
vn -0.0000 0.8286 -0.5598
usemtl None
s off
f 30/1/1 33/2/1 34/3/1 3/4/1
f 3/4/2 34/3/2 35/5/2 7/6/2
f 25/7/3 36/8/3 37/9/3 5/10/3
f 5/10/2 1/11/2 39/12/2 37/9/2
f 21/13/4 25/7/4 5/10/4 1/14/4
f 43/15/3 8/16/3 13/17/3 32/18/3
f 38/19/2 40/20/2 9/21/2 10/22/2
f 23/23/5 14/24/5 11/25/5 26/26/5
f 41/27/1 2/28/1 11/29/1 26/30/1
f 2/31/6 6/32/6 14/24/6 11/33/6
f 8/16/7 4/34/7 12/35/7 13/17/7
f 27/36/1 16/37/1 19/38/1 29/39/1
f 32/18/8 20/40/8 19/41/8 29/42/8
f 22/43/3 18/44/3 20/40/3 23/23/3
f 30/45/4 28/46/4 17/47/4 15/48/4
f 28/46/3 31/49/3 44/50/3 17/47/3
f 21/51/1 24/52/1 42/53/1 15/54/1
f 1/55/1 39/56/1 24/52/1 21/51/1
f 6/32/3 22/43/3 23/23/3 14/24/3
f 16/37/1 41/27/1 26/30/1 19/38/1
f 20/40/9 23/23/9 26/26/9 19/41/9
f 15/48/4 17/47/4 25/7/4 21/13/4
f 17/47/3 44/50/3 36/8/3 25/7/3
f 7/6/3 35/5/3 31/49/3 28/46/3
f 3/57/4 7/6/4 28/46/4 30/45/4
f 13/17/10 12/58/10 29/42/10 32/18/10
f 4/34/1 27/36/1 29/39/1 12/35/1
f 18/44/3 43/15/3 32/18/3 20/40/3
f 15/54/1 42/53/1 33/2/1 30/1/1
