# Blender v2.92.0 OBJ File: 'quarto.blend'
# www.blender.org
mtllib quarto.mtl
o paredes_Cube
v -45.497009 16.122038 -67.696075
v -45.497009 -16.139730 -67.696075
v -45.497005 16.122038 72.404877
v -45.497005 -16.139734 72.404877
v -46.776180 16.122038 -67.696075
v -46.776180 -16.139730 -67.696075
v -46.776180 16.122038 72.404877
v -46.776180 -16.139734 72.404877
v 46.747498 16.122038 -68.975258
v 46.747498 11.282773 -68.975258
v 46.747498 -16.139730 -68.975258
v 45.468319 -16.139730 -68.975258
v 45.468319 11.282773 -68.975258
v 45.468319 16.122038 -68.975258
v -46.776180 -16.139734 12.314927
v -45.497005 16.122038 12.314927
v -46.776180 16.122038 12.314927
v -45.497005 -16.139734 12.314927
v -46.776180 16.122038 -8.893294
v -45.497005 -16.139734 -8.893294
v -46.776180 -16.139734 -8.893294
v -45.497005 16.122038 -8.893294
v -45.497009 -4.041570 -67.696075
v -46.776180 -4.041570 72.404877
v -45.497005 -4.041570 72.404877
v -46.776180 -4.041570 -67.696075
v -45.497005 -4.041570 -8.893294
v -46.776180 -4.041570 -8.893294
v -46.776180 -4.041570 12.314927
v -45.497005 -4.041570 12.314927
v -46.776180 11.282773 72.404877
v -45.497009 11.282773 -67.696075
v -45.497005 11.282773 72.404877
v -46.776180 11.282773 -67.696075
v -45.497005 11.282773 12.314927
v -46.776180 11.282773 12.314927
v -45.497005 11.282773 -8.893294
v -46.776180 11.282773 -8.893294
v 45.468319 -16.139730 72.404877
v 45.468319 -16.139730 71.123688
v 45.468319 11.282773 72.404877
v 45.468319 11.282773 71.123688
v 45.468319 16.122038 72.404877
v 45.468319 16.122038 71.123688
v -46.776180 -4.041570 71.123688
v -45.497005 -4.041570 71.123688
v -46.776180 11.282773 71.123688
v -45.497005 16.122038 71.123688
v -46.776180 -16.139734 71.123688
v -45.497005 -16.139734 71.123688
v -46.776180 16.122038 71.123688
v -45.497005 11.282773 71.123688
v 27.167215 11.282773 72.404877
v 27.167215 -4.041570 72.404877
v 27.167215 -4.041570 71.123688
v 27.167215 16.122038 72.404877
v 27.167215 16.122038 71.123688
v 27.167215 -16.139734 72.404877
v 27.167215 11.282773 71.123688
v 27.167215 -16.139734 71.123688
v 46.747498 16.122038 72.404877
v 46.747498 11.282773 72.404877
v 46.747498 16.122038 71.123688
v 46.747498 11.282773 71.123688
v 41.790527 16.122038 71.123688
v 41.790527 11.282773 71.123688
v 41.790527 11.282773 72.404877
v 41.790527 16.122038 72.404877
v 46.747498 -16.139730 71.123688
v 46.747498 -16.139730 72.404877
v 41.790527 -16.139730 71.123688
v 41.790527 -16.139730 72.404877
v 45.468319 -16.139730 -67.696075
v 45.468319 11.282773 -67.696075
v 46.747498 11.282773 -67.696075
v 46.747498 -16.139730 -67.696075
v 45.468319 16.122038 -67.696075
v 46.747498 16.122038 -67.696075
v -46.776180 -16.139730 -68.975258
v -46.776180 11.282773 -68.975258
v -46.776180 16.122038 -68.975258
v -45.497009 -16.139730 -68.975258
v -45.497009 11.282773 -68.975258
v -45.497009 16.122038 -68.975258
v 46.747498 -4.041569 -68.975258
v 45.468319 -4.041570 -68.975258
v 45.468319 -4.041570 72.404877
v 45.468319 -4.041570 71.123688
v 41.790527 -4.041570 72.404877
v 46.747498 -4.041569 72.404877
v 46.747498 -4.041569 71.123688
v 41.790527 -4.041569 71.123688
v 46.747498 -4.041569 -67.696075
v 45.468319 -4.041570 -67.696075
v -46.776180 -4.041570 -68.975258
v -45.497009 -4.041569 -68.975258
vt 0.625000 0.747735
vt 0.875000 0.747735
vt 0.875000 0.750000
vt 0.625000 0.750000
vt 0.587500 0.750000
vt 0.625000 1.000000
vt 0.587500 1.000000
vt 0.587500 0.143750
vt 0.625000 0.143750
vt 0.625000 0.250000
vt 0.587500 0.250000
vt 0.125000 0.747735
vt 0.375000 0.747735
vt 0.375000 0.750000
vt 0.125000 0.750000
vt 0.625000 0.750000
vt 0.625000 0.747735
vt 0.625000 0.747735
vt 0.587500 0.747735
vt 0.587500 0.747735
vt 0.625000 0.747735
vt 0.587500 0.747735
vt 0.587500 0.747735
vt 0.587500 0.747735
vt 0.587500 0.747735
vt 0.587500 0.747735
vt 0.587500 0.747735
vt 0.587500 0.747735
vt 0.587500 0.747735
vt 0.587500 0.747735
vt 0.587500 0.747735
vt 0.587500 0.747735
vt 0.625000 0.747735
vt 0.587500 0.606250
vt 0.625000 0.606250
vt 0.625000 0.625000
vt 0.587500 0.625000
vt 0.125000 0.606250
vt 0.375000 0.606250
vt 0.375000 0.625000
vt 0.125000 0.625000
vt 0.875000 0.606250
vt 0.875000 0.625000
vt 0.625000 0.500000
vt 0.875000 0.500000
vt 0.125000 0.500000
vt 0.375000 0.500000
vt 0.587500 0.500000
vt 0.587500 0.125000
vt 0.625000 0.125000
vt 0.587500 0.002265
vt 0.625000 0.002265
vt 0.625000 0.106250
vt 0.587500 0.106250
vt 0.500000 0.002265
vt 0.500000 0.106250
vt 0.587500 0.643750
vt 0.500000 0.643750
vt 0.500000 0.500000
vt 0.500000 0.606250
vt 0.468750 0.750000
vt 0.375000 0.750000
vt 0.468750 0.750000
vt 0.500000 0.143750
vt 0.500000 0.250000
vt 0.500000 0.750000
vt 0.500000 1.000000
vt 0.468750 1.000000
vt 0.375000 1.000000
vt 0.375000 0.143750
vt 0.468750 0.143750
vt 0.468750 0.250000
vt 0.375000 0.250000
vt 0.587500 0.747735
vt 0.587500 0.747735
vt 0.468750 0.606250
vt 0.468750 0.625000
vt 0.468750 0.500000
vt 0.375000 0.125000
vt 0.468750 0.125000
vt 0.375000 0.002265
vt 0.468750 0.002265
vt 0.468750 0.106250
vt 0.375000 0.106250
vt 0.587500 0.747735
vt 0.625000 0.747735
vt 0.625000 0.747735
vt 0.587500 0.747735
vt 0.587500 0.750000
vt 0.587500 0.750000
vt 0.587500 0.750000
vt 0.587500 0.750000
vt 0.625000 0.750000
vt 0.625000 0.750000
vt 0.587500 0.750000
vt 0.587500 0.750000
vt 0.587500 0.750000
vt 0.587500 0.747735
vt 0.587500 0.747735
vt 0.587500 0.747735
vt 0.587500 0.747735
vt 0.375000 0.000000
vt 0.468750 0.000000
vt 0.375000 0.643750
vt 0.468750 0.643750
vt 0.468750 0.747735
vt 0.500000 0.747735
vt 0.500000 0.000000
vt 0.587500 0.000000
vt 0.625000 0.000000
vt 0.625000 0.643750
vt 0.125000 0.643750
vt 0.875000 0.643750
vt 0.587500 0.747735
vt 0.500000 0.747735
vt 0.587500 0.750000
vt 0.500000 0.750000
vt 0.375000 0.747735
vt 0.468750 0.747735
vt 0.587500 0.747735
vt 0.625000 0.747735
vt 0.625000 0.750000
vt 0.587500 0.750000
vt 0.587500 0.750000
vt 0.587500 0.747735
vt 0.587500 0.747735
vt 0.625000 0.747735
vt 0.587500 0.747735
vt 0.587500 0.747735
vt 0.587500 0.747735
vt 0.587500 0.747735
vt 0.587500 0.747735
vt 0.625000 0.747735
vt 0.625000 0.747735
vt 0.587500 0.747735
vt 0.587500 0.747735
vt 0.625000 0.747735
vt 0.587500 0.747735
vt 0.625000 0.747735
vt 0.587500 0.747735
vt 0.587500 0.747735
vn 0.0000 1.0000 0.0000
vn 0.0000 0.0000 1.0000
vn -1.0000 0.0000 0.0000
vn 0.0000 -1.0000 0.0000
vn 1.0000 0.0000 0.0000
vn 0.0000 0.0000 -1.0000
usemtl Material
s off
f 48/1/1 51/2/1 7/3/1 3/4/1
f 33/5/2 3/4/2 7/6/2 31/7/2
f 38/8/3 19/9/3 5/10/3 34/11/3
f 49/12/4 50/13/4 4/14/4 8/15/4
f 48/1/1 3/4/1 56/16/1 57/17/1
f 78/18/5 75/19/5 10/20/5 9/21/5
f 76/22/4 73/23/4 12/24/4 11/25/4
f 96/26/6 82/27/6 79/28/6 95/29/6
f 86/30/6 85/31/6 11/25/6 12/24/6
f 13/32/6 14/33/6 9/21/6 10/20/6
f 37/34/5 22/35/5 16/36/5 35/37/5
f 21/38/4 20/39/4 18/40/4 15/41/4
f 22/35/1 19/42/1 17/43/1 16/36/1
f 1/44/1 5/45/1 19/42/1 22/35/1
f 6/46/4 2/47/4 20/39/4 21/38/4
f 32/48/5 1/44/5 22/35/5 37/34/5
f 36/49/3 17/50/3 19/9/3 38/8/3
f 47/51/3 51/52/3 17/53/3 36/54/3
f 35/37/4 36/49/4 38/8/4 37/34/4
f 45/55/3 47/51/3 36/54/3 29/56/3
f 29/56/6 36/54/6 35/57/6 30/58/6
f 23/59/5 32/48/5 37/34/5 27/60/5
f 25/61/2 4/14/2 58/62/2 54/63/2
f 28/64/3 38/8/3 34/11/3 26/65/3
f 25/66/2 33/5/2 31/7/2 24/67/2
f 4/14/2 25/61/2 24/68/2 8/69/2
f 21/70/3 28/71/3 26/72/3 6/73/3
f 52/74/6 48/1/6 57/17/6 59/75/6
f 20/39/5 27/76/5 30/77/5 18/40/5
f 2/47/5 23/78/5 27/76/5 20/39/5
f 15/79/3 29/80/3 28/71/3 21/70/3
f 49/81/3 45/82/3 29/83/3 15/84/3
f 27/60/2 37/34/2 38/8/2 28/64/2
f 27/76/1 28/71/1 29/80/1 30/77/1
f 66/85/6 65/86/6 44/87/6 42/88/6
f 90/89/2 87/90/2 39/91/2 70/92/2
f 65/86/1 68/93/1 43/94/1 44/87/1
f 68/93/2 67/95/2 41/96/2 43/94/2
f 72/97/4 71/98/4 40/99/4 39/91/4
f 92/100/6 88/101/6 40/99/6 71/98/6
f 8/102/3 24/103/3 45/82/3 49/81/3
f 18/104/5 30/105/5 46/106/5 50/13/5
f 30/58/5 35/57/5 52/74/5 46/107/5
f 24/108/3 31/109/3 47/51/3 45/55/3
f 31/109/3 7/110/3 51/52/3 47/51/3
f 35/57/5 16/111/5 48/1/5 52/74/5
f 15/112/4 18/104/4 50/13/4 49/12/4
f 16/111/1 17/113/1 51/2/1 48/1/1
f 93/114/5 76/22/5 11/25/5 85/31/5
f 55/115/5 59/75/5 53/116/5 54/117/5
f 60/118/5 55/119/5 54/63/5 58/62/5
f 50/13/6 46/106/6 55/119/6 60/118/6
f 4/14/4 50/13/4 60/118/4 58/62/4
f 46/107/6 52/74/6 59/75/6 55/115/6
f 3/4/2 33/5/2 53/116/2 56/16/2
f 33/5/2 25/66/2 54/117/2 53/116/2
f 64/120/5 63/121/5 61/122/5 62/123/5
f 87/90/2 89/124/2 72/97/2 39/91/2
f 44/87/1 43/94/1 61/122/1 63/121/1
f 43/94/2 41/96/2 62/123/2 61/122/2
f 56/16/2 53/116/2 67/95/2 68/93/2
f 57/17/1 56/16/1 68/93/1 65/86/1
f 53/116/4 59/75/4 66/85/4 67/95/4
f 59/75/6 57/17/6 65/86/6 66/85/6
f 39/91/4 40/99/4 69/125/4 70/92/4
f 91/126/5 90/89/5 70/92/5 69/125/5
f 77/127/1 78/18/1 9/21/1 14/33/1
f 89/124/3 92/100/3 71/98/3 72/97/3
f 44/87/1 63/121/1 78/18/1 77/127/1
f 91/126/5 69/125/5 76/22/5 93/114/5
f 42/88/3 44/87/3 77/127/3 74/128/3
f 69/125/4 40/99/4 73/23/4 76/22/4
f 88/101/3 42/88/3 74/128/3 94/129/3
f 63/121/5 64/120/5 75/19/5 78/18/5
f 26/130/3 34/131/3 80/132/3 95/29/3
f 34/131/3 5/133/3 81/134/3 80/132/3
f 82/27/4 2/135/4 6/136/4 79/28/4
f 84/137/6 83/138/6 80/132/6 81/134/6
f 1/139/1 84/137/1 81/134/1 5/133/1
f 77/127/1 14/33/1 84/137/1 1/139/1
f 14/33/6 13/32/6 83/138/6 84/137/6
f 12/24/4 73/23/4 2/135/4 82/27/4
f 74/128/2 77/127/2 1/139/2 32/140/2
f 86/30/6 12/24/6 82/27/6 96/26/6
f 94/129/2 74/128/2 32/140/2 23/141/2
f 73/23/2 94/129/2 23/141/2 2/135/2
f 13/32/6 86/30/6 96/26/6 83/138/6
f 6/136/3 26/130/3 95/29/3 79/28/3
f 40/99/3 88/101/3 94/129/3 73/23/3
f 64/120/5 91/126/5 93/114/5 75/19/5
f 67/95/3 66/85/3 92/100/3 89/124/3
f 64/120/5 62/123/5 90/89/5 91/126/5
f 41/96/2 67/95/2 89/124/2 87/90/2
f 75/19/5 93/114/5 85/31/5 10/20/5
f 66/85/6 42/88/6 88/101/6 92/100/6
f 62/123/2 41/96/2 87/90/2 90/89/2
f 13/32/6 10/20/6 85/31/6 86/30/6
f 83/138/6 96/26/6 95/29/6 80/132/6
