# Blender v2.92.0 OBJ File: 'quarto.blend'
# www.blender.org
mtllib quarto.mtl.mtl
o paredes_Cube
v -45.498783 16.121746 -69.020035
v -45.498783 -16.140026 -69.020035
v -45.498783 16.121746 72.368088
v -45.498783 -16.140026 72.368088
v -46.777958 16.121746 -69.020035
v -46.777958 -16.140026 -69.020035
v -46.777958 16.121746 72.368088
v -46.777958 -16.140026 72.368088
v 46.745724 16.121746 -69.020035
v 46.745724 -16.140026 -69.020035
v 46.745724 16.121746 72.368088
v 46.745724 -16.140026 72.368088
v 45.466541 16.121746 -69.020035
v 45.466541 -16.140026 -69.020035
v 45.466541 16.121746 72.368088
v 45.466541 -16.140026 72.368088
v -46.777958 -16.140026 12.278137
v -45.498783 16.121746 12.278137
v -46.777958 16.121746 12.278137
v -45.498783 -16.140026 12.278137
v -46.777958 16.121746 -8.930084
v -45.498783 -16.140026 -8.930084
v -46.777958 -16.140026 -8.930084
v -45.498783 16.121746 -8.930084
v -45.498783 -4.041862 -69.020035
v -46.777958 -4.041862 72.368088
v -45.498783 -4.041862 72.368088
v -46.777958 -4.041862 -69.020035
v -45.498783 -4.041862 -8.930084
v -46.777958 -4.041862 -8.930084
v -46.777958 -4.041862 12.278137
v -45.498783 -4.041862 12.278137
v -46.777958 11.282481 72.368088
v -45.498783 11.282481 -69.020035
v -45.498783 11.282481 72.368088
v -46.777958 11.282481 -69.020035
v -45.498783 11.282481 12.278137
v -46.777958 11.282481 12.278137
v -45.498783 11.282481 -8.930084
v -46.777958 11.282481 -8.930084
v -46.770489 16.121746 -69.012062
v -46.770489 -16.140026 -69.012062
v 46.741749 16.121746 -69.012047
v 46.741749 -16.140026 -69.012047
v -46.770489 16.121746 -67.732872
v -46.770489 -16.140026 -67.732872
v 46.741749 16.121746 -67.732864
v 46.741749 -16.140026 -67.732864
v -46.770489 16.121746 71.081917
v -46.770489 -16.140026 71.081917
v 46.741749 16.121746 71.081932
v 46.741749 -16.140026 71.081932
v -46.770489 16.121746 72.361107
v -46.770489 -16.140026 72.361107
v 46.741749 16.121746 72.361122
v 46.741749 -16.140026 72.361122
v 41.796055 -16.140026 72.361122
v 41.796055 16.121746 71.081932
v 41.796055 16.121746 72.361122
v 41.796055 -16.140026 71.081932
v 27.172794 16.121746 72.361122
v 27.172794 -16.140026 71.081932
v 27.172794 -16.140026 72.361122
v 27.172794 16.121746 71.081932
v 46.741749 11.227492 72.361122
v -46.770489 11.227492 71.081917
v 46.741749 11.227492 71.081932
v -46.770489 11.227492 72.361107
v 41.796055 11.227492 71.081932
v 41.796055 11.227492 72.361122
v 27.172794 11.227492 71.081932
v 27.172794 11.227492 72.361122
vt 0.625000 0.643750
vt 0.875000 0.643750
vt 0.875000 0.750000
vt 0.625000 0.750000
vt 0.587500 0.750000
vt 0.625000 1.000000
vt 0.587500 1.000000
vt 0.587500 0.143750
vt 0.625000 0.143750
vt 0.625000 0.250000
vt 0.587500 0.250000
vt 0.125000 0.643750
vt 0.375000 0.643750
vt 0.375000 0.750000
vt 0.125000 0.750000
vt 0.587500 0.643750
vt 0.625000 0.500000
vt 0.587500 0.500000
vt 0.625000 0.500000
vt 0.875000 0.500000
vt 0.875000 0.750000
vt 0.625000 0.750000
vt 0.375000 0.750000
vt 0.625000 1.000000
vt 0.375000 1.000000
vt 0.375000 0.000000
vt 0.625000 0.000000
vt 0.625000 0.250000
vt 0.375000 0.250000
vt 0.125000 0.500000
vt 0.375000 0.500000
vt 0.125000 0.750000
vt 0.587500 0.606250
vt 0.625000 0.606250
vt 0.625000 0.625000
vt 0.587500 0.625000
vt 0.125000 0.606250
vt 0.375000 0.606250
vt 0.375000 0.625000
vt 0.125000 0.625000
vt 0.875000 0.606250
vt 0.875000 0.625000
vt 0.875000 0.500000
vt 0.125000 0.500000
vt 0.375000 0.500000
vt 0.587500 0.125000
vt 0.625000 0.125000
vt 0.587500 0.000000
vt 0.625000 0.000000
vt 0.625000 0.106250
vt 0.587500 0.106250
vt 0.375000 0.750000
vt 0.625000 0.750000
vt 0.625000 1.000000
vt 0.375000 1.000000
vt 0.625000 0.500000
vt 0.875000 0.500000
vt 0.875000 0.750000
vt 0.500000 0.000000
vt 0.500000 0.106250
vt 0.500000 0.643750
vt 0.500000 0.500000
vt 0.500000 0.606250
vt 0.500000 0.250000
vt 0.500000 0.750000
vt 0.500000 0.143750
vt 0.500000 1.000000
vt 0.468750 0.750000
vt 0.468750 1.000000
vt 0.375000 1.000000
vt 0.375000 0.143750
vt 0.468750 0.143750
vt 0.468750 0.250000
vt 0.375000 0.250000
vt 0.468750 0.643750
vt 0.468750 0.500000
vt 0.468750 0.606250
vt 0.468750 0.625000
vt 0.375000 0.125000
vt 0.468750 0.125000
vt 0.375000 0.000000
vt 0.468750 0.000000
vt 0.468750 0.106250
vt 0.375000 0.106250
vt 0.375000 0.000000
vt 0.625000 0.000000
vt 0.625000 0.250000
vt 0.375000 0.250000
vt 0.125000 0.500000
vt 0.375000 0.500000
vt 0.125000 0.750000
vt 0.587074 0.750000
vt 0.625000 0.750000
vt 0.625000 1.000000
vt 0.587074 1.000000
vt 0.625000 0.736778
vt 0.875000 0.736778
vt 0.875000 0.750000
vt 0.587074 0.052317
vt 0.625000 0.052317
vt 0.625000 0.250000
vt 0.587074 0.250000
vt 0.125000 0.736778
vt 0.375000 0.736778
vt 0.375000 0.750000
vt 0.125000 0.750000
vt 0.587074 0.736778
vt 0.625000 0.500000
vt 0.587074 0.500000
vt 0.587074 0.697683
vt 0.625000 0.697683
vt 0.375000 0.052317
vt 0.375000 0.697683
vt 0.587074 0.000000
vt 0.625000 0.000000
vt 0.625000 0.013222
vt 0.587074 0.013222
vt 0.875000 0.697683
vt 0.875000 0.500000
vt 0.125000 0.500000
vt 0.375000 0.500000
vt 0.125000 0.697683
vt 0.375000 0.000000
vt 0.375000 0.013222
vt 0.375000 0.250000
vt 0.375000 1.000000
vn 0.0000 1.0000 0.0000
vn 0.0000 0.0000 1.0000
vn -1.0000 0.0000 0.0000
vn 0.0000 -1.0000 0.0000
vn 1.0000 0.0000 0.0000
vn 0.0000 0.0000 -1.0000
usemtl Material
s off
f 18/1/1 19/2/1 7/3/1 3/4/1
f 35/5/2 3/4/2 7/6/2 33/7/2
f 40/8/3 21/9/3 5/10/3 36/11/3
f 17/12/4 20/13/4 4/14/4 8/15/4
f 37/16/5 18/1/5 3/4/5 35/5/5
f 36/11/6 5/10/6 1/17/6 34/18/6
f 9/19/1 13/20/1 15/21/1 11/22/1
f 12/23/2 11/22/2 15/24/2 16/25/2
f 16/26/3 15/27/3 13/28/3 14/29/3
f 14/30/4 10/31/4 12/23/4 16/32/4
f 10/31/5 9/19/5 11/22/5 12/23/5
f 14/29/6 13/28/6 9/19/6 10/31/6
f 39/33/5 24/34/5 18/35/5 37/36/5
f 23/37/4 22/38/4 20/39/4 17/40/4
f 24/34/1 21/41/1 19/42/1 18/35/1
f 1/17/1 5/43/1 21/41/1 24/34/1
f 6/44/4 2/45/4 22/38/4 23/37/4
f 34/18/5 1/17/5 24/34/5 39/33/5
f 38/46/3 19/47/3 21/9/3 40/8/3
f 33/48/3 7/49/3 19/50/3 38/51/3
f 37/36/4 38/46/4 40/8/4 39/33/4
f 44/52/5 43/53/5 47/54/5 48/55/5
f 41/56/1 45/57/1 47/58/1 43/53/1
f 26/59/3 33/48/3 38/51/3 31/60/3
f 31/60/6 38/51/6 37/16/6 32/61/6
f 25/62/5 34/18/5 39/33/5 29/63/5
f 28/64/6 36/11/6 34/18/6 25/62/6
f 32/61/5 37/16/5 35/5/5 27/65/5
f 30/66/3 40/8/3 36/11/3 28/64/3
f 27/65/2 35/5/2 33/7/2 26/67/2
f 4/14/2 27/68/2 26/69/2 8/70/2
f 23/71/3 30/72/3 28/73/3 6/74/3
f 20/13/5 32/75/5 27/68/5 4/14/5
f 6/74/6 28/73/6 25/76/6 2/45/6
f 22/38/5 29/77/5 32/78/5 20/39/5
f 2/45/5 25/76/5 29/77/5 22/38/5
f 17/79/3 31/80/3 30/72/3 23/71/3
f 8/81/3 26/82/3 31/83/3 17/84/3
f 29/63/2 39/33/2 40/8/2 30/66/2
f 29/77/1 30/72/1 31/80/1 32/78/1
f 48/85/2 47/86/2 45/87/2 46/88/2
f 46/89/4 42/90/4 44/52/4 48/91/4
f 42/90/6 41/56/6 43/53/6 44/52/6
f 46/88/3 45/87/3 41/56/3 42/90/3
f 67/92/5 51/93/5 55/94/5 65/95/5
f 58/96/1 59/97/1 55/98/1 51/93/1
f 72/99/2 61/100/2 53/101/2 68/102/2
f 57/103/4 60/104/4 52/105/4 56/106/4
f 69/107/6 58/96/6 51/93/6 67/92/6
f 68/102/3 53/101/3 49/108/3 66/109/3
f 71/110/6 64/111/6 58/96/6 69/107/6
f 72/99/5 63/112/5 62/113/5 71/110/5
f 65/114/2 55/115/2 59/116/2 70/117/2
f 64/111/1 61/118/1 59/97/1 58/96/1
f 49/108/1 53/119/1 61/118/1 64/111/1
f 54/120/4 50/121/4 62/113/4 63/122/4
f 66/109/6 49/108/6 64/111/6 71/110/6
f 70/117/2 59/116/2 61/100/2 72/99/2
f 70/117/4 72/99/4 71/110/4 69/107/4
f 50/121/6 66/109/6 71/110/6 62/113/6
f 56/123/2 65/114/2 70/117/2 57/124/2
f 70/117/3 69/107/3 60/104/3 57/124/3
f 54/125/3 68/102/3 66/109/3 50/121/3
f 60/104/6 69/107/6 67/92/6 52/105/6
f 63/112/2 72/99/2 68/102/2 54/125/2
f 52/105/5 67/92/5 65/95/5 56/126/5
