# Blender v2.92.0 OBJ File: 'quarto.blend'
# www.blender.org
mtllib sofa.mtl
o Cube_Cube.016
v -33.036068 -16.227528 56.290554
v -41.951267 -16.227528 56.290554
v -41.951267 -8.281113 56.290554
v -33.717247 -8.281113 56.290554
v -33.036068 -9.375443 56.290554
v -33.328209 -8.670151 56.290554
v -44.017338 -8.281113 56.290554
v -44.017338 -16.227528 56.290554
v -41.951267 -0.540152 56.290554
v -44.017338 -0.540152 56.290554
v -41.951267 -8.281113 59.273514
v -41.951267 -16.227528 59.273514
v -44.017334 -8.281113 59.273514
v -44.017334 -16.227528 59.273514
v -44.017338 -5.197959 56.290554
v -41.951267 -5.197959 56.290554
v -32.542202 -16.227528 56.290554
v -32.542202 -8.281113 56.290554
v -44.017334 -6.187913 59.273514
v -44.017338 -5.197959 58.283558
v -44.017334 -5.487909 58.983559
v -41.951267 -5.197959 58.283558
v -41.951267 -6.187913 59.273514
v -41.951267 -5.487909 58.983559
v -32.542202 -8.281113 59.273514
v -32.542202 -16.227528 59.273514
v -32.542202 -5.197959 56.290554
v -32.542202 -6.187913 59.273514
v -32.542202 -5.487909 58.983559
v -32.542202 -5.197959 58.283558
v -33.036068 -16.227528 28.789532
v -41.951267 -16.227528 28.789532
v -41.951267 -8.281113 28.789532
v -33.036068 -16.227528 42.540043
v -41.951267 -16.227528 42.540043
v -41.951267 -8.281113 42.540043
v -33.717247 -8.281113 28.789532
v -33.717247 -8.281113 42.540043
v -33.036068 -9.375443 28.789532
v -33.328209 -8.670151 28.789532
v -33.328209 -8.670151 42.540043
v -33.036068 -9.375443 42.540043
v -44.017338 -8.281113 28.789532
v -44.017338 -16.227528 28.789532
v -44.017338 -16.227528 42.540043
v -44.017338 -8.281113 42.540043
v -41.951267 -0.540152 28.789532
v -41.951267 -0.540152 42.540043
v -44.017338 -0.540152 28.789532
v -44.017338 -0.540152 42.540043
v -41.951267 -8.281113 25.806574
v -41.951267 -16.227528 25.806574
v -44.017338 -8.281113 25.806574
v -44.017338 -16.227528 25.806574
v -44.017338 -5.197959 28.789532
v -41.951267 -5.197959 28.789532
v -32.542206 -16.227528 28.789532
v -32.542206 -8.281113 28.789532
v -44.017338 -6.187913 25.806574
v -44.017338 -5.197959 26.796528
v -44.017338 -5.487909 26.096525
v -41.951267 -5.197959 26.796528
v -41.951267 -6.187913 25.806574
v -41.951267 -5.487909 26.096525
v -32.542206 -8.281113 25.806574
v -32.542206 -16.227528 25.806574
v -32.542206 -5.197959 28.789532
v -32.542206 -6.187913 25.806574
v -32.542206 -5.487909 26.096525
v -32.542206 -5.197959 26.796528
vt 0.625000 0.500000
vt 0.875000 0.500000
vt 0.875000 0.730898
vt 0.625000 0.730898
vt 0.125000 0.500000
vt 0.375000 0.500000
vt 0.375000 0.750000
vt 0.125000 0.750000
vt 0.594313 0.750000
vt 0.594313 1.000000
vt 0.375000 1.000000
vt 0.875000 0.500000
vt 0.875000 0.500000
vt 0.875000 0.500000
vt 0.875000 0.500000
vt 0.614091 0.750000
vt 0.614091 1.000000
vt 0.625000 0.750000
vt 0.625000 1.000000
vt 0.375000 0.250000
vt 0.625000 0.250000
vt 0.625000 0.500000
vt 0.375000 0.500000
vt 0.125000 0.500000
vt 0.875000 0.500000
vt 0.875000 0.500000
vt 0.875000 0.500000
vt 0.375000 0.250000
vt 0.875000 0.500000
vt 0.375000 0.250000
vt 0.625000 0.500000
vt 0.625000 0.500000
vt 0.625000 0.250000
vt 0.375000 0.250000
vt 0.875000 0.500000
vt 0.875000 0.500000
vt 0.375000 0.250000
vt 0.125000 0.500000
vt 0.125000 0.500000
vt 0.625000 0.250000
vt 0.791667 0.416667
vt 0.875000 0.500000
vt 0.875000 0.500000
vt 0.875000 0.500000
vt 0.875000 0.500000
vt 0.000000 0.000000
vt 0.000000 0.000000
vt 0.000000 0.000000
vt 0.000000 0.000000
vt 0.875000 0.500000
vt 0.875000 0.500000
vt 0.875000 0.500000
vt 0.875000 0.500000
vt 0.125000 0.500000
vt 0.125000 0.500000
vt 0.875000 0.730898
vt 0.875000 0.500000
vt 0.125000 0.500000
vt 0.125000 0.750000
vt 0.375000 1.000000
vt 0.594313 1.000000
vt 0.875000 0.500000
vt 0.875000 0.500000
vt 0.875000 0.500000
vt 0.875000 0.500000
vt 0.614091 1.000000
vt 0.625000 1.000000
vt 0.375000 0.250000
vt 0.625000 0.250000
vt 0.125000 0.500000
vt 0.875000 0.500000
vt 0.875000 0.500000
vt 0.875000 0.500000
vt 0.375000 0.250000
vt 0.375000 0.250000
vt 0.875000 0.500000
vt 0.625000 0.250000
vt 0.375000 0.250000
vt 0.375000 0.250000
vt 0.875000 0.500000
vt 0.875000 0.500000
vt 0.125000 0.500000
vt 0.125000 0.500000
vt 0.625000 0.250000
vt 0.875000 0.500000
vt 0.875000 0.500000
vt 0.791667 0.416667
vt 0.875000 0.500000
vt 0.875000 0.500000
vt 0.000000 0.000000
vt 0.000000 0.000000
vt 0.000000 0.000000
vt 0.000000 0.000000
vt 0.875000 0.500000
vt 0.875000 0.500000
vt 0.875000 0.500000
vt 0.875000 0.500000
vt 0.125000 0.500000
vt 0.125000 0.500000
vn 0.0000 1.0000 0.0000
vn 0.0000 -1.0000 0.0000
vn 1.0000 0.0000 0.0000
vn 0.9239 0.3827 0.0000
vn 0.7071 0.7071 0.0000
vn -1.0000 0.0000 0.0000
vn 0.0000 0.0000 1.0000
vn 0.0000 0.0000 -1.0000
vn 0.0000 0.3827 0.9239
vn 0.0000 0.9239 0.3827
vn 0.0000 0.3827 -0.9239
vn 0.0000 0.9239 -0.3827
usemtl None
s off
f 36/1/1 3/2/1 4/3/1 38/4/1
f 2/5/2 35/6/2 34/7/2 1/8/2
f 34/7/3 42/9/3 5/10/3 1/11/3
f 27/12/3 30/13/3 29/14/3 18/15/3
f 5/10/4 42/9/4 41/16/4 6/17/4
f 38/18/5 4/19/5 6/17/5 41/16/5
f 8/20/6 7/21/6 46/22/6 45/23/6
f 35/6/2 2/5/2 8/24/2 45/23/2
f 7/25/7 3/2/7 9/26/7 10/27/7
f 17/28/3 18/15/3 25/29/3 26/30/3
f 9/26/1 48/31/1 50/32/1 10/27/1
f 3/2/3 36/1/3 48/31/3 9/26/3
f 46/22/6 7/21/6 10/33/6 50/32/6
f 12/34/7 11/35/7 13/36/7 14/37/7
f 8/24/2 2/5/2 12/38/2 14/39/2
f 11/35/7 12/34/7 26/30/7 25/29/7
f 7/21/6 8/20/6 14/37/6 13/40/6
f 7/25/6 21/41/6 20/42/6 15/43/6
f 16/44/1 15/43/1 20/42/1 22/45/1
f 2/46/8 3/47/8 18/48/8 17/49/8
f 3/2/8 7/25/8 15/43/8 16/44/8
f 19/50/9 23/51/9 24/52/9 21/41/9
f 21/41/10 24/52/10 22/45/10 20/42/10
f 13/36/7 11/35/7 23/51/7 19/50/7
f 24/52/9 23/51/9 28/53/9 29/14/9
f 16/44/1 22/45/1 30/13/1 27/12/1
f 3/2/8 16/44/8 27/12/8 18/15/8
f 22/45/10 24/52/10 29/14/10 30/13/10
f 12/38/2 2/5/2 17/54/2 26/55/2
f 23/51/7 11/35/7 25/29/7 28/53/7
f 13/36/6 19/50/6 21/41/6 7/25/6
f 18/15/3 29/14/3 28/53/3 25/29/3
f 36/1/1 38/4/1 37/56/1 33/57/1
f 36/1/7 46/22/7 45/23/7 35/6/7
f 32/58/2 31/59/2 34/7/2 35/6/2
f 34/7/3 31/60/3 39/61/3 42/9/3
f 67/62/3 58/63/3 69/64/3 70/65/3
f 39/61/4 40/66/4 41/16/4 42/9/4
f 38/18/5 41/16/5 40/66/5 37/67/5
f 44/68/6 45/23/6 46/22/6 43/69/6
f 35/6/2 45/23/2 44/70/2 32/58/2
f 43/71/8 49/72/8 47/73/8 33/57/8
f 57/74/3 66/75/3 65/76/3 58/63/3
f 47/73/1 49/72/1 50/32/1 48/31/1
f 36/1/7 48/31/7 50/32/7 46/22/7
f 33/57/3 47/73/3 48/31/3 36/1/3
f 46/22/6 50/32/6 49/77/6 43/69/6
f 52/78/8 54/79/8 53/80/8 51/81/8
f 44/70/2 54/82/2 52/83/2 32/58/2
f 51/81/8 65/76/8 66/75/8 52/78/8
f 43/69/6 53/84/6 54/79/6 44/68/6
f 43/71/6 55/85/6 60/86/6 61/87/6
f 56/88/1 62/89/1 60/86/1 55/85/1
f 32/90/7 57/91/7 58/92/7 33/93/7
f 33/57/7 56/88/7 55/85/7 43/71/7
f 59/94/11 61/87/11 64/95/11 63/96/11
f 61/87/12 60/86/12 62/89/12 64/95/12
f 53/80/8 59/94/8 63/96/8 51/81/8
f 64/95/11 69/64/11 68/97/11 63/96/11
f 56/88/1 67/62/1 70/65/1 62/89/1
f 33/57/7 58/63/7 67/62/7 56/88/7
f 62/89/12 70/65/12 69/64/12 64/95/12
f 52/83/2 66/98/2 57/99/2 32/58/2
f 63/96/8 68/97/8 65/76/8 51/81/8
f 53/80/6 43/71/6 61/87/6 59/94/6
f 58/63/3 65/76/3 68/97/3 69/64/3
